G04 #@! TF.GenerationSoftware,KiCad,Pcbnew,(5.1.5)-3*
G04 #@! TF.CreationDate,2020-03-12T23:57:53+01:00*
G04 #@! TF.ProjectId,DykoDAC,44796b6f-4441-4432-9e6b-696361645f70,rev?*
G04 #@! TF.SameCoordinates,Original*
G04 #@! TF.FileFunction,Soldermask,Top*
G04 #@! TF.FilePolarity,Negative*
%FSLAX46Y46*%
G04 Gerber Fmt 4.6, Leading zero omitted, Abs format (unit mm)*
G04 Created by KiCad (PCBNEW (5.1.5)-3) date 2020-03-12 23:57:53*
%MOMM*%
%LPD*%
G04 APERTURE LIST*
%ADD10R,1.100000X4.600000*%
%ADD11R,10.800000X9.400000*%
%ADD12R,5.000000X5.600000*%
%ADD13C,0.100000*%
%ADD14R,2.200000X4.000000*%
%ADD15O,4.000000X2.200000*%
%ADD16O,2.200000X4.000000*%
%ADD17C,1.600000*%
%ADD18C,3.000000*%
%ADD19R,2.600000X2.700000*%
%ADD20R,2.600000X2.500000*%
%ADD21C,1.800000*%
%ADD22C,2.100000*%
%ADD23C,1.750000*%
%ADD24R,4.600000X1.100000*%
%ADD25R,9.400000X10.800000*%
%ADD26R,1.350000X1.650000*%
%ADD27R,1.700000X1.700000*%
%ADD28O,1.700000X1.700000*%
%ADD29R,1.350000X1.350000*%
%ADD30O,1.350000X1.350000*%
%ADD31R,3.960000X1.980000*%
%ADD32O,3.960000X1.980000*%
%ADD33R,0.900000X0.500000*%
%ADD34R,0.900000X1.200000*%
%ADD35C,2.700000*%
%ADD36C,1.520000*%
%ADD37R,1.000000X1.250000*%
%ADD38R,1.250000X1.000000*%
%ADD39R,0.500000X0.900000*%
%ADD40R,0.750000X0.800000*%
%ADD41R,0.800000X0.750000*%
%ADD42R,0.250000X1.000000*%
%ADD43R,1.000000X0.250000*%
%ADD44R,1.400000X1.200000*%
%ADD45R,1.400000X1.000000*%
%ADD46R,2.400000X2.400000*%
%ADD47C,2.400000*%
%ADD48R,1.450000X0.450000*%
%ADD49R,1.100000X0.400000*%
%ADD50R,1.550000X0.600000*%
%ADD51R,0.650000X1.060000*%
%ADD52R,1.060000X0.650000*%
%ADD53R,2.300000X2.500000*%
%ADD54R,0.800000X0.900000*%
%ADD55R,1.950000X0.600000*%
%ADD56R,3.000000X4.000000*%
G04 APERTURE END LIST*
D10*
X111023400Y-93938400D03*
X116103400Y-93938400D03*
D11*
X113563400Y-84788400D03*
D10*
X89154000Y-93913000D03*
X94234000Y-93913000D03*
D11*
X91694000Y-84763000D03*
D12*
X69675000Y-61849000D03*
X63675000Y-61849000D03*
D13*
G36*
X92187504Y-129155204D02*
G01*
X92211773Y-129158804D01*
X92235571Y-129164765D01*
X92258671Y-129173030D01*
X92280849Y-129183520D01*
X92301893Y-129196133D01*
X92321598Y-129210747D01*
X92339777Y-129227223D01*
X92356253Y-129245402D01*
X92370867Y-129265107D01*
X92383480Y-129286151D01*
X92393970Y-129308329D01*
X92402235Y-129331429D01*
X92408196Y-129355227D01*
X92411796Y-129379496D01*
X92413000Y-129404000D01*
X92413000Y-131454000D01*
X92411796Y-131478504D01*
X92408196Y-131502773D01*
X92402235Y-131526571D01*
X92393970Y-131549671D01*
X92383480Y-131571849D01*
X92370867Y-131592893D01*
X92356253Y-131612598D01*
X92339777Y-131630777D01*
X92321598Y-131647253D01*
X92301893Y-131661867D01*
X92280849Y-131674480D01*
X92258671Y-131684970D01*
X92235571Y-131693235D01*
X92211773Y-131699196D01*
X92187504Y-131702796D01*
X92163000Y-131704000D01*
X90588000Y-131704000D01*
X90563496Y-131702796D01*
X90539227Y-131699196D01*
X90515429Y-131693235D01*
X90492329Y-131684970D01*
X90470151Y-131674480D01*
X90449107Y-131661867D01*
X90429402Y-131647253D01*
X90411223Y-131630777D01*
X90394747Y-131612598D01*
X90380133Y-131592893D01*
X90367520Y-131571849D01*
X90357030Y-131549671D01*
X90348765Y-131526571D01*
X90342804Y-131502773D01*
X90339204Y-131478504D01*
X90338000Y-131454000D01*
X90338000Y-129404000D01*
X90339204Y-129379496D01*
X90342804Y-129355227D01*
X90348765Y-129331429D01*
X90357030Y-129308329D01*
X90367520Y-129286151D01*
X90380133Y-129265107D01*
X90394747Y-129245402D01*
X90411223Y-129227223D01*
X90429402Y-129210747D01*
X90449107Y-129196133D01*
X90470151Y-129183520D01*
X90492329Y-129173030D01*
X90515429Y-129164765D01*
X90539227Y-129158804D01*
X90563496Y-129155204D01*
X90588000Y-129154000D01*
X92163000Y-129154000D01*
X92187504Y-129155204D01*
G37*
G36*
X98412504Y-129155204D02*
G01*
X98436773Y-129158804D01*
X98460571Y-129164765D01*
X98483671Y-129173030D01*
X98505849Y-129183520D01*
X98526893Y-129196133D01*
X98546598Y-129210747D01*
X98564777Y-129227223D01*
X98581253Y-129245402D01*
X98595867Y-129265107D01*
X98608480Y-129286151D01*
X98618970Y-129308329D01*
X98627235Y-129331429D01*
X98633196Y-129355227D01*
X98636796Y-129379496D01*
X98638000Y-129404000D01*
X98638000Y-131454000D01*
X98636796Y-131478504D01*
X98633196Y-131502773D01*
X98627235Y-131526571D01*
X98618970Y-131549671D01*
X98608480Y-131571849D01*
X98595867Y-131592893D01*
X98581253Y-131612598D01*
X98564777Y-131630777D01*
X98546598Y-131647253D01*
X98526893Y-131661867D01*
X98505849Y-131674480D01*
X98483671Y-131684970D01*
X98460571Y-131693235D01*
X98436773Y-131699196D01*
X98412504Y-131702796D01*
X98388000Y-131704000D01*
X96813000Y-131704000D01*
X96788496Y-131702796D01*
X96764227Y-131699196D01*
X96740429Y-131693235D01*
X96717329Y-131684970D01*
X96695151Y-131674480D01*
X96674107Y-131661867D01*
X96654402Y-131647253D01*
X96636223Y-131630777D01*
X96619747Y-131612598D01*
X96605133Y-131592893D01*
X96592520Y-131571849D01*
X96582030Y-131549671D01*
X96573765Y-131526571D01*
X96567804Y-131502773D01*
X96564204Y-131478504D01*
X96563000Y-131454000D01*
X96563000Y-129404000D01*
X96564204Y-129379496D01*
X96567804Y-129355227D01*
X96573765Y-129331429D01*
X96582030Y-129308329D01*
X96592520Y-129286151D01*
X96605133Y-129265107D01*
X96619747Y-129245402D01*
X96636223Y-129227223D01*
X96654402Y-129210747D01*
X96674107Y-129196133D01*
X96695151Y-129183520D01*
X96717329Y-129173030D01*
X96740429Y-129164765D01*
X96764227Y-129158804D01*
X96788496Y-129155204D01*
X96813000Y-129154000D01*
X98388000Y-129154000D01*
X98412504Y-129155204D01*
G37*
G36*
X75471504Y-91990204D02*
G01*
X75495773Y-91993804D01*
X75519571Y-91999765D01*
X75542671Y-92008030D01*
X75564849Y-92018520D01*
X75585893Y-92031133D01*
X75605598Y-92045747D01*
X75623777Y-92062223D01*
X75640253Y-92080402D01*
X75654867Y-92100107D01*
X75667480Y-92121151D01*
X75677970Y-92143329D01*
X75686235Y-92166429D01*
X75692196Y-92190227D01*
X75695796Y-92214496D01*
X75697000Y-92239000D01*
X75697000Y-93814000D01*
X75695796Y-93838504D01*
X75692196Y-93862773D01*
X75686235Y-93886571D01*
X75677970Y-93909671D01*
X75667480Y-93931849D01*
X75654867Y-93952893D01*
X75640253Y-93972598D01*
X75623777Y-93990777D01*
X75605598Y-94007253D01*
X75585893Y-94021867D01*
X75564849Y-94034480D01*
X75542671Y-94044970D01*
X75519571Y-94053235D01*
X75495773Y-94059196D01*
X75471504Y-94062796D01*
X75447000Y-94064000D01*
X73397000Y-94064000D01*
X73372496Y-94062796D01*
X73348227Y-94059196D01*
X73324429Y-94053235D01*
X73301329Y-94044970D01*
X73279151Y-94034480D01*
X73258107Y-94021867D01*
X73238402Y-94007253D01*
X73220223Y-93990777D01*
X73203747Y-93972598D01*
X73189133Y-93952893D01*
X73176520Y-93931849D01*
X73166030Y-93909671D01*
X73157765Y-93886571D01*
X73151804Y-93862773D01*
X73148204Y-93838504D01*
X73147000Y-93814000D01*
X73147000Y-92239000D01*
X73148204Y-92214496D01*
X73151804Y-92190227D01*
X73157765Y-92166429D01*
X73166030Y-92143329D01*
X73176520Y-92121151D01*
X73189133Y-92100107D01*
X73203747Y-92080402D01*
X73220223Y-92062223D01*
X73238402Y-92045747D01*
X73258107Y-92031133D01*
X73279151Y-92018520D01*
X73301329Y-92008030D01*
X73324429Y-91999765D01*
X73348227Y-91993804D01*
X73372496Y-91990204D01*
X73397000Y-91989000D01*
X75447000Y-91989000D01*
X75471504Y-91990204D01*
G37*
G36*
X75471504Y-98215204D02*
G01*
X75495773Y-98218804D01*
X75519571Y-98224765D01*
X75542671Y-98233030D01*
X75564849Y-98243520D01*
X75585893Y-98256133D01*
X75605598Y-98270747D01*
X75623777Y-98287223D01*
X75640253Y-98305402D01*
X75654867Y-98325107D01*
X75667480Y-98346151D01*
X75677970Y-98368329D01*
X75686235Y-98391429D01*
X75692196Y-98415227D01*
X75695796Y-98439496D01*
X75697000Y-98464000D01*
X75697000Y-100039000D01*
X75695796Y-100063504D01*
X75692196Y-100087773D01*
X75686235Y-100111571D01*
X75677970Y-100134671D01*
X75667480Y-100156849D01*
X75654867Y-100177893D01*
X75640253Y-100197598D01*
X75623777Y-100215777D01*
X75605598Y-100232253D01*
X75585893Y-100246867D01*
X75564849Y-100259480D01*
X75542671Y-100269970D01*
X75519571Y-100278235D01*
X75495773Y-100284196D01*
X75471504Y-100287796D01*
X75447000Y-100289000D01*
X73397000Y-100289000D01*
X73372496Y-100287796D01*
X73348227Y-100284196D01*
X73324429Y-100278235D01*
X73301329Y-100269970D01*
X73279151Y-100259480D01*
X73258107Y-100246867D01*
X73238402Y-100232253D01*
X73220223Y-100215777D01*
X73203747Y-100197598D01*
X73189133Y-100177893D01*
X73176520Y-100156849D01*
X73166030Y-100134671D01*
X73157765Y-100111571D01*
X73151804Y-100087773D01*
X73148204Y-100063504D01*
X73147000Y-100039000D01*
X73147000Y-98464000D01*
X73148204Y-98439496D01*
X73151804Y-98415227D01*
X73157765Y-98391429D01*
X73166030Y-98368329D01*
X73176520Y-98346151D01*
X73189133Y-98325107D01*
X73203747Y-98305402D01*
X73220223Y-98287223D01*
X73238402Y-98270747D01*
X73258107Y-98256133D01*
X73279151Y-98243520D01*
X73301329Y-98233030D01*
X73324429Y-98224765D01*
X73348227Y-98218804D01*
X73372496Y-98215204D01*
X73397000Y-98214000D01*
X75447000Y-98214000D01*
X75471504Y-98215204D01*
G37*
G36*
X123350504Y-92373204D02*
G01*
X123374773Y-92376804D01*
X123398571Y-92382765D01*
X123421671Y-92391030D01*
X123443849Y-92401520D01*
X123464893Y-92414133D01*
X123484598Y-92428747D01*
X123502777Y-92445223D01*
X123519253Y-92463402D01*
X123533867Y-92483107D01*
X123546480Y-92504151D01*
X123556970Y-92526329D01*
X123565235Y-92549429D01*
X123571196Y-92573227D01*
X123574796Y-92597496D01*
X123576000Y-92622000D01*
X123576000Y-94197000D01*
X123574796Y-94221504D01*
X123571196Y-94245773D01*
X123565235Y-94269571D01*
X123556970Y-94292671D01*
X123546480Y-94314849D01*
X123533867Y-94335893D01*
X123519253Y-94355598D01*
X123502777Y-94373777D01*
X123484598Y-94390253D01*
X123464893Y-94404867D01*
X123443849Y-94417480D01*
X123421671Y-94427970D01*
X123398571Y-94436235D01*
X123374773Y-94442196D01*
X123350504Y-94445796D01*
X123326000Y-94447000D01*
X121276000Y-94447000D01*
X121251496Y-94445796D01*
X121227227Y-94442196D01*
X121203429Y-94436235D01*
X121180329Y-94427970D01*
X121158151Y-94417480D01*
X121137107Y-94404867D01*
X121117402Y-94390253D01*
X121099223Y-94373777D01*
X121082747Y-94355598D01*
X121068133Y-94335893D01*
X121055520Y-94314849D01*
X121045030Y-94292671D01*
X121036765Y-94269571D01*
X121030804Y-94245773D01*
X121027204Y-94221504D01*
X121026000Y-94197000D01*
X121026000Y-92622000D01*
X121027204Y-92597496D01*
X121030804Y-92573227D01*
X121036765Y-92549429D01*
X121045030Y-92526329D01*
X121055520Y-92504151D01*
X121068133Y-92483107D01*
X121082747Y-92463402D01*
X121099223Y-92445223D01*
X121117402Y-92428747D01*
X121137107Y-92414133D01*
X121158151Y-92401520D01*
X121180329Y-92391030D01*
X121203429Y-92382765D01*
X121227227Y-92376804D01*
X121251496Y-92373204D01*
X121276000Y-92372000D01*
X123326000Y-92372000D01*
X123350504Y-92373204D01*
G37*
G36*
X123350504Y-86148204D02*
G01*
X123374773Y-86151804D01*
X123398571Y-86157765D01*
X123421671Y-86166030D01*
X123443849Y-86176520D01*
X123464893Y-86189133D01*
X123484598Y-86203747D01*
X123502777Y-86220223D01*
X123519253Y-86238402D01*
X123533867Y-86258107D01*
X123546480Y-86279151D01*
X123556970Y-86301329D01*
X123565235Y-86324429D01*
X123571196Y-86348227D01*
X123574796Y-86372496D01*
X123576000Y-86397000D01*
X123576000Y-87972000D01*
X123574796Y-87996504D01*
X123571196Y-88020773D01*
X123565235Y-88044571D01*
X123556970Y-88067671D01*
X123546480Y-88089849D01*
X123533867Y-88110893D01*
X123519253Y-88130598D01*
X123502777Y-88148777D01*
X123484598Y-88165253D01*
X123464893Y-88179867D01*
X123443849Y-88192480D01*
X123421671Y-88202970D01*
X123398571Y-88211235D01*
X123374773Y-88217196D01*
X123350504Y-88220796D01*
X123326000Y-88222000D01*
X121276000Y-88222000D01*
X121251496Y-88220796D01*
X121227227Y-88217196D01*
X121203429Y-88211235D01*
X121180329Y-88202970D01*
X121158151Y-88192480D01*
X121137107Y-88179867D01*
X121117402Y-88165253D01*
X121099223Y-88148777D01*
X121082747Y-88130598D01*
X121068133Y-88110893D01*
X121055520Y-88089849D01*
X121045030Y-88067671D01*
X121036765Y-88044571D01*
X121030804Y-88020773D01*
X121027204Y-87996504D01*
X121026000Y-87972000D01*
X121026000Y-86397000D01*
X121027204Y-86372496D01*
X121030804Y-86348227D01*
X121036765Y-86324429D01*
X121045030Y-86301329D01*
X121055520Y-86279151D01*
X121068133Y-86258107D01*
X121082747Y-86238402D01*
X121099223Y-86220223D01*
X121117402Y-86203747D01*
X121137107Y-86189133D01*
X121158151Y-86176520D01*
X121180329Y-86166030D01*
X121203429Y-86157765D01*
X121227227Y-86151804D01*
X121251496Y-86148204D01*
X121276000Y-86147000D01*
X123326000Y-86147000D01*
X123350504Y-86148204D01*
G37*
G36*
X102776504Y-86148204D02*
G01*
X102800773Y-86151804D01*
X102824571Y-86157765D01*
X102847671Y-86166030D01*
X102869849Y-86176520D01*
X102890893Y-86189133D01*
X102910598Y-86203747D01*
X102928777Y-86220223D01*
X102945253Y-86238402D01*
X102959867Y-86258107D01*
X102972480Y-86279151D01*
X102982970Y-86301329D01*
X102991235Y-86324429D01*
X102997196Y-86348227D01*
X103000796Y-86372496D01*
X103002000Y-86397000D01*
X103002000Y-87972000D01*
X103000796Y-87996504D01*
X102997196Y-88020773D01*
X102991235Y-88044571D01*
X102982970Y-88067671D01*
X102972480Y-88089849D01*
X102959867Y-88110893D01*
X102945253Y-88130598D01*
X102928777Y-88148777D01*
X102910598Y-88165253D01*
X102890893Y-88179867D01*
X102869849Y-88192480D01*
X102847671Y-88202970D01*
X102824571Y-88211235D01*
X102800773Y-88217196D01*
X102776504Y-88220796D01*
X102752000Y-88222000D01*
X100702000Y-88222000D01*
X100677496Y-88220796D01*
X100653227Y-88217196D01*
X100629429Y-88211235D01*
X100606329Y-88202970D01*
X100584151Y-88192480D01*
X100563107Y-88179867D01*
X100543402Y-88165253D01*
X100525223Y-88148777D01*
X100508747Y-88130598D01*
X100494133Y-88110893D01*
X100481520Y-88089849D01*
X100471030Y-88067671D01*
X100462765Y-88044571D01*
X100456804Y-88020773D01*
X100453204Y-87996504D01*
X100452000Y-87972000D01*
X100452000Y-86397000D01*
X100453204Y-86372496D01*
X100456804Y-86348227D01*
X100462765Y-86324429D01*
X100471030Y-86301329D01*
X100481520Y-86279151D01*
X100494133Y-86258107D01*
X100508747Y-86238402D01*
X100525223Y-86220223D01*
X100543402Y-86203747D01*
X100563107Y-86189133D01*
X100584151Y-86176520D01*
X100606329Y-86166030D01*
X100629429Y-86157765D01*
X100653227Y-86151804D01*
X100677496Y-86148204D01*
X100702000Y-86147000D01*
X102752000Y-86147000D01*
X102776504Y-86148204D01*
G37*
G36*
X102776504Y-92373204D02*
G01*
X102800773Y-92376804D01*
X102824571Y-92382765D01*
X102847671Y-92391030D01*
X102869849Y-92401520D01*
X102890893Y-92414133D01*
X102910598Y-92428747D01*
X102928777Y-92445223D01*
X102945253Y-92463402D01*
X102959867Y-92483107D01*
X102972480Y-92504151D01*
X102982970Y-92526329D01*
X102991235Y-92549429D01*
X102997196Y-92573227D01*
X103000796Y-92597496D01*
X103002000Y-92622000D01*
X103002000Y-94197000D01*
X103000796Y-94221504D01*
X102997196Y-94245773D01*
X102991235Y-94269571D01*
X102982970Y-94292671D01*
X102972480Y-94314849D01*
X102959867Y-94335893D01*
X102945253Y-94355598D01*
X102928777Y-94373777D01*
X102910598Y-94390253D01*
X102890893Y-94404867D01*
X102869849Y-94417480D01*
X102847671Y-94427970D01*
X102824571Y-94436235D01*
X102800773Y-94442196D01*
X102776504Y-94445796D01*
X102752000Y-94447000D01*
X100702000Y-94447000D01*
X100677496Y-94445796D01*
X100653227Y-94442196D01*
X100629429Y-94436235D01*
X100606329Y-94427970D01*
X100584151Y-94417480D01*
X100563107Y-94404867D01*
X100543402Y-94390253D01*
X100525223Y-94373777D01*
X100508747Y-94355598D01*
X100494133Y-94335893D01*
X100481520Y-94314849D01*
X100471030Y-94292671D01*
X100462765Y-94269571D01*
X100456804Y-94245773D01*
X100453204Y-94221504D01*
X100452000Y-94197000D01*
X100452000Y-92622000D01*
X100453204Y-92597496D01*
X100456804Y-92573227D01*
X100462765Y-92549429D01*
X100471030Y-92526329D01*
X100481520Y-92504151D01*
X100494133Y-92483107D01*
X100508747Y-92463402D01*
X100525223Y-92445223D01*
X100543402Y-92428747D01*
X100563107Y-92414133D01*
X100584151Y-92401520D01*
X100606329Y-92391030D01*
X100629429Y-92382765D01*
X100653227Y-92376804D01*
X100677496Y-92373204D01*
X100702000Y-92372000D01*
X102752000Y-92372000D01*
X102776504Y-92373204D01*
G37*
G36*
X95826505Y-133333204D02*
G01*
X95850773Y-133336804D01*
X95874572Y-133342765D01*
X95897671Y-133351030D01*
X95919850Y-133361520D01*
X95940893Y-133374132D01*
X95960599Y-133388747D01*
X95978777Y-133405223D01*
X95995253Y-133423401D01*
X96009868Y-133443107D01*
X96022480Y-133464150D01*
X96032970Y-133486329D01*
X96041235Y-133509428D01*
X96047196Y-133533227D01*
X96050796Y-133557495D01*
X96052000Y-133581999D01*
X96052000Y-134482001D01*
X96050796Y-134506505D01*
X96047196Y-134530773D01*
X96041235Y-134554572D01*
X96032970Y-134577671D01*
X96022480Y-134599850D01*
X96009868Y-134620893D01*
X95995253Y-134640599D01*
X95978777Y-134658777D01*
X95960599Y-134675253D01*
X95940893Y-134689868D01*
X95919850Y-134702480D01*
X95897671Y-134712970D01*
X95874572Y-134721235D01*
X95850773Y-134727196D01*
X95826505Y-134730796D01*
X95802001Y-134732000D01*
X94951999Y-134732000D01*
X94927495Y-134730796D01*
X94903227Y-134727196D01*
X94879428Y-134721235D01*
X94856329Y-134712970D01*
X94834150Y-134702480D01*
X94813107Y-134689868D01*
X94793401Y-134675253D01*
X94775223Y-134658777D01*
X94758747Y-134640599D01*
X94744132Y-134620893D01*
X94731520Y-134599850D01*
X94721030Y-134577671D01*
X94712765Y-134554572D01*
X94706804Y-134530773D01*
X94703204Y-134506505D01*
X94702000Y-134482001D01*
X94702000Y-133581999D01*
X94703204Y-133557495D01*
X94706804Y-133533227D01*
X94712765Y-133509428D01*
X94721030Y-133486329D01*
X94731520Y-133464150D01*
X94744132Y-133443107D01*
X94758747Y-133423401D01*
X94775223Y-133405223D01*
X94793401Y-133388747D01*
X94813107Y-133374132D01*
X94834150Y-133361520D01*
X94856329Y-133351030D01*
X94879428Y-133342765D01*
X94903227Y-133336804D01*
X94927495Y-133333204D01*
X94951999Y-133332000D01*
X95802001Y-133332000D01*
X95826505Y-133333204D01*
G37*
G36*
X95826505Y-136033204D02*
G01*
X95850773Y-136036804D01*
X95874572Y-136042765D01*
X95897671Y-136051030D01*
X95919850Y-136061520D01*
X95940893Y-136074132D01*
X95960599Y-136088747D01*
X95978777Y-136105223D01*
X95995253Y-136123401D01*
X96009868Y-136143107D01*
X96022480Y-136164150D01*
X96032970Y-136186329D01*
X96041235Y-136209428D01*
X96047196Y-136233227D01*
X96050796Y-136257495D01*
X96052000Y-136281999D01*
X96052000Y-137182001D01*
X96050796Y-137206505D01*
X96047196Y-137230773D01*
X96041235Y-137254572D01*
X96032970Y-137277671D01*
X96022480Y-137299850D01*
X96009868Y-137320893D01*
X95995253Y-137340599D01*
X95978777Y-137358777D01*
X95960599Y-137375253D01*
X95940893Y-137389868D01*
X95919850Y-137402480D01*
X95897671Y-137412970D01*
X95874572Y-137421235D01*
X95850773Y-137427196D01*
X95826505Y-137430796D01*
X95802001Y-137432000D01*
X94951999Y-137432000D01*
X94927495Y-137430796D01*
X94903227Y-137427196D01*
X94879428Y-137421235D01*
X94856329Y-137412970D01*
X94834150Y-137402480D01*
X94813107Y-137389868D01*
X94793401Y-137375253D01*
X94775223Y-137358777D01*
X94758747Y-137340599D01*
X94744132Y-137320893D01*
X94731520Y-137299850D01*
X94721030Y-137277671D01*
X94712765Y-137254572D01*
X94706804Y-137230773D01*
X94703204Y-137206505D01*
X94702000Y-137182001D01*
X94702000Y-136281999D01*
X94703204Y-136257495D01*
X94706804Y-136233227D01*
X94712765Y-136209428D01*
X94721030Y-136186329D01*
X94731520Y-136164150D01*
X94744132Y-136143107D01*
X94758747Y-136123401D01*
X94775223Y-136105223D01*
X94793401Y-136088747D01*
X94813107Y-136074132D01*
X94834150Y-136061520D01*
X94856329Y-136051030D01*
X94879428Y-136042765D01*
X94903227Y-136036804D01*
X94927495Y-136033204D01*
X94951999Y-136032000D01*
X95802001Y-136032000D01*
X95826505Y-136033204D01*
G37*
G36*
X84120505Y-105244204D02*
G01*
X84144773Y-105247804D01*
X84168572Y-105253765D01*
X84191671Y-105262030D01*
X84213850Y-105272520D01*
X84234893Y-105285132D01*
X84254599Y-105299747D01*
X84272777Y-105316223D01*
X84289253Y-105334401D01*
X84303868Y-105354107D01*
X84316480Y-105375150D01*
X84326970Y-105397329D01*
X84335235Y-105420428D01*
X84341196Y-105444227D01*
X84344796Y-105468495D01*
X84346000Y-105492999D01*
X84346000Y-106343001D01*
X84344796Y-106367505D01*
X84341196Y-106391773D01*
X84335235Y-106415572D01*
X84326970Y-106438671D01*
X84316480Y-106460850D01*
X84303868Y-106481893D01*
X84289253Y-106501599D01*
X84272777Y-106519777D01*
X84254599Y-106536253D01*
X84234893Y-106550868D01*
X84213850Y-106563480D01*
X84191671Y-106573970D01*
X84168572Y-106582235D01*
X84144773Y-106588196D01*
X84120505Y-106591796D01*
X84096001Y-106593000D01*
X83195999Y-106593000D01*
X83171495Y-106591796D01*
X83147227Y-106588196D01*
X83123428Y-106582235D01*
X83100329Y-106573970D01*
X83078150Y-106563480D01*
X83057107Y-106550868D01*
X83037401Y-106536253D01*
X83019223Y-106519777D01*
X83002747Y-106501599D01*
X82988132Y-106481893D01*
X82975520Y-106460850D01*
X82965030Y-106438671D01*
X82956765Y-106415572D01*
X82950804Y-106391773D01*
X82947204Y-106367505D01*
X82946000Y-106343001D01*
X82946000Y-105492999D01*
X82947204Y-105468495D01*
X82950804Y-105444227D01*
X82956765Y-105420428D01*
X82965030Y-105397329D01*
X82975520Y-105375150D01*
X82988132Y-105354107D01*
X83002747Y-105334401D01*
X83019223Y-105316223D01*
X83037401Y-105299747D01*
X83057107Y-105285132D01*
X83078150Y-105272520D01*
X83100329Y-105262030D01*
X83123428Y-105253765D01*
X83147227Y-105247804D01*
X83171495Y-105244204D01*
X83195999Y-105243000D01*
X84096001Y-105243000D01*
X84120505Y-105244204D01*
G37*
G36*
X81420505Y-105244204D02*
G01*
X81444773Y-105247804D01*
X81468572Y-105253765D01*
X81491671Y-105262030D01*
X81513850Y-105272520D01*
X81534893Y-105285132D01*
X81554599Y-105299747D01*
X81572777Y-105316223D01*
X81589253Y-105334401D01*
X81603868Y-105354107D01*
X81616480Y-105375150D01*
X81626970Y-105397329D01*
X81635235Y-105420428D01*
X81641196Y-105444227D01*
X81644796Y-105468495D01*
X81646000Y-105492999D01*
X81646000Y-106343001D01*
X81644796Y-106367505D01*
X81641196Y-106391773D01*
X81635235Y-106415572D01*
X81626970Y-106438671D01*
X81616480Y-106460850D01*
X81603868Y-106481893D01*
X81589253Y-106501599D01*
X81572777Y-106519777D01*
X81554599Y-106536253D01*
X81534893Y-106550868D01*
X81513850Y-106563480D01*
X81491671Y-106573970D01*
X81468572Y-106582235D01*
X81444773Y-106588196D01*
X81420505Y-106591796D01*
X81396001Y-106593000D01*
X80495999Y-106593000D01*
X80471495Y-106591796D01*
X80447227Y-106588196D01*
X80423428Y-106582235D01*
X80400329Y-106573970D01*
X80378150Y-106563480D01*
X80357107Y-106550868D01*
X80337401Y-106536253D01*
X80319223Y-106519777D01*
X80302747Y-106501599D01*
X80288132Y-106481893D01*
X80275520Y-106460850D01*
X80265030Y-106438671D01*
X80256765Y-106415572D01*
X80250804Y-106391773D01*
X80247204Y-106367505D01*
X80246000Y-106343001D01*
X80246000Y-105492999D01*
X80247204Y-105468495D01*
X80250804Y-105444227D01*
X80256765Y-105420428D01*
X80265030Y-105397329D01*
X80275520Y-105375150D01*
X80288132Y-105354107D01*
X80302747Y-105334401D01*
X80319223Y-105316223D01*
X80337401Y-105299747D01*
X80357107Y-105285132D01*
X80378150Y-105272520D01*
X80400329Y-105262030D01*
X80423428Y-105253765D01*
X80447227Y-105247804D01*
X80471495Y-105244204D01*
X80495999Y-105243000D01*
X81396001Y-105243000D01*
X81420505Y-105244204D01*
G37*
G36*
X125649505Y-98767204D02*
G01*
X125673773Y-98770804D01*
X125697572Y-98776765D01*
X125720671Y-98785030D01*
X125742850Y-98795520D01*
X125763893Y-98808132D01*
X125783599Y-98822747D01*
X125801777Y-98839223D01*
X125818253Y-98857401D01*
X125832868Y-98877107D01*
X125845480Y-98898150D01*
X125855970Y-98920329D01*
X125864235Y-98943428D01*
X125870196Y-98967227D01*
X125873796Y-98991495D01*
X125875000Y-99015999D01*
X125875000Y-99866001D01*
X125873796Y-99890505D01*
X125870196Y-99914773D01*
X125864235Y-99938572D01*
X125855970Y-99961671D01*
X125845480Y-99983850D01*
X125832868Y-100004893D01*
X125818253Y-100024599D01*
X125801777Y-100042777D01*
X125783599Y-100059253D01*
X125763893Y-100073868D01*
X125742850Y-100086480D01*
X125720671Y-100096970D01*
X125697572Y-100105235D01*
X125673773Y-100111196D01*
X125649505Y-100114796D01*
X125625001Y-100116000D01*
X124724999Y-100116000D01*
X124700495Y-100114796D01*
X124676227Y-100111196D01*
X124652428Y-100105235D01*
X124629329Y-100096970D01*
X124607150Y-100086480D01*
X124586107Y-100073868D01*
X124566401Y-100059253D01*
X124548223Y-100042777D01*
X124531747Y-100024599D01*
X124517132Y-100004893D01*
X124504520Y-99983850D01*
X124494030Y-99961671D01*
X124485765Y-99938572D01*
X124479804Y-99914773D01*
X124476204Y-99890505D01*
X124475000Y-99866001D01*
X124475000Y-99015999D01*
X124476204Y-98991495D01*
X124479804Y-98967227D01*
X124485765Y-98943428D01*
X124494030Y-98920329D01*
X124504520Y-98898150D01*
X124517132Y-98877107D01*
X124531747Y-98857401D01*
X124548223Y-98839223D01*
X124566401Y-98822747D01*
X124586107Y-98808132D01*
X124607150Y-98795520D01*
X124629329Y-98785030D01*
X124652428Y-98776765D01*
X124676227Y-98770804D01*
X124700495Y-98767204D01*
X124724999Y-98766000D01*
X125625001Y-98766000D01*
X125649505Y-98767204D01*
G37*
G36*
X122949505Y-98767204D02*
G01*
X122973773Y-98770804D01*
X122997572Y-98776765D01*
X123020671Y-98785030D01*
X123042850Y-98795520D01*
X123063893Y-98808132D01*
X123083599Y-98822747D01*
X123101777Y-98839223D01*
X123118253Y-98857401D01*
X123132868Y-98877107D01*
X123145480Y-98898150D01*
X123155970Y-98920329D01*
X123164235Y-98943428D01*
X123170196Y-98967227D01*
X123173796Y-98991495D01*
X123175000Y-99015999D01*
X123175000Y-99866001D01*
X123173796Y-99890505D01*
X123170196Y-99914773D01*
X123164235Y-99938572D01*
X123155970Y-99961671D01*
X123145480Y-99983850D01*
X123132868Y-100004893D01*
X123118253Y-100024599D01*
X123101777Y-100042777D01*
X123083599Y-100059253D01*
X123063893Y-100073868D01*
X123042850Y-100086480D01*
X123020671Y-100096970D01*
X122997572Y-100105235D01*
X122973773Y-100111196D01*
X122949505Y-100114796D01*
X122925001Y-100116000D01*
X122024999Y-100116000D01*
X122000495Y-100114796D01*
X121976227Y-100111196D01*
X121952428Y-100105235D01*
X121929329Y-100096970D01*
X121907150Y-100086480D01*
X121886107Y-100073868D01*
X121866401Y-100059253D01*
X121848223Y-100042777D01*
X121831747Y-100024599D01*
X121817132Y-100004893D01*
X121804520Y-99983850D01*
X121794030Y-99961671D01*
X121785765Y-99938572D01*
X121779804Y-99914773D01*
X121776204Y-99890505D01*
X121775000Y-99866001D01*
X121775000Y-99015999D01*
X121776204Y-98991495D01*
X121779804Y-98967227D01*
X121785765Y-98943428D01*
X121794030Y-98920329D01*
X121804520Y-98898150D01*
X121817132Y-98877107D01*
X121831747Y-98857401D01*
X121848223Y-98839223D01*
X121866401Y-98822747D01*
X121886107Y-98808132D01*
X121907150Y-98795520D01*
X121929329Y-98785030D01*
X121952428Y-98776765D01*
X121976227Y-98770804D01*
X122000495Y-98767204D01*
X122024999Y-98766000D01*
X122925001Y-98766000D01*
X122949505Y-98767204D01*
G37*
G36*
X118940505Y-104791204D02*
G01*
X118964773Y-104794804D01*
X118988572Y-104800765D01*
X119011671Y-104809030D01*
X119033850Y-104819520D01*
X119054893Y-104832132D01*
X119074599Y-104846747D01*
X119092777Y-104863223D01*
X119109253Y-104881401D01*
X119123868Y-104901107D01*
X119136480Y-104922150D01*
X119146970Y-104944329D01*
X119155235Y-104967428D01*
X119161196Y-104991227D01*
X119164796Y-105015495D01*
X119166000Y-105039999D01*
X119166000Y-105940001D01*
X119164796Y-105964505D01*
X119161196Y-105988773D01*
X119155235Y-106012572D01*
X119146970Y-106035671D01*
X119136480Y-106057850D01*
X119123868Y-106078893D01*
X119109253Y-106098599D01*
X119092777Y-106116777D01*
X119074599Y-106133253D01*
X119054893Y-106147868D01*
X119033850Y-106160480D01*
X119011671Y-106170970D01*
X118988572Y-106179235D01*
X118964773Y-106185196D01*
X118940505Y-106188796D01*
X118916001Y-106190000D01*
X118065999Y-106190000D01*
X118041495Y-106188796D01*
X118017227Y-106185196D01*
X117993428Y-106179235D01*
X117970329Y-106170970D01*
X117948150Y-106160480D01*
X117927107Y-106147868D01*
X117907401Y-106133253D01*
X117889223Y-106116777D01*
X117872747Y-106098599D01*
X117858132Y-106078893D01*
X117845520Y-106057850D01*
X117835030Y-106035671D01*
X117826765Y-106012572D01*
X117820804Y-105988773D01*
X117817204Y-105964505D01*
X117816000Y-105940001D01*
X117816000Y-105039999D01*
X117817204Y-105015495D01*
X117820804Y-104991227D01*
X117826765Y-104967428D01*
X117835030Y-104944329D01*
X117845520Y-104922150D01*
X117858132Y-104901107D01*
X117872747Y-104881401D01*
X117889223Y-104863223D01*
X117907401Y-104846747D01*
X117927107Y-104832132D01*
X117948150Y-104819520D01*
X117970329Y-104809030D01*
X117993428Y-104800765D01*
X118017227Y-104794804D01*
X118041495Y-104791204D01*
X118065999Y-104790000D01*
X118916001Y-104790000D01*
X118940505Y-104791204D01*
G37*
G36*
X118940505Y-102091204D02*
G01*
X118964773Y-102094804D01*
X118988572Y-102100765D01*
X119011671Y-102109030D01*
X119033850Y-102119520D01*
X119054893Y-102132132D01*
X119074599Y-102146747D01*
X119092777Y-102163223D01*
X119109253Y-102181401D01*
X119123868Y-102201107D01*
X119136480Y-102222150D01*
X119146970Y-102244329D01*
X119155235Y-102267428D01*
X119161196Y-102291227D01*
X119164796Y-102315495D01*
X119166000Y-102339999D01*
X119166000Y-103240001D01*
X119164796Y-103264505D01*
X119161196Y-103288773D01*
X119155235Y-103312572D01*
X119146970Y-103335671D01*
X119136480Y-103357850D01*
X119123868Y-103378893D01*
X119109253Y-103398599D01*
X119092777Y-103416777D01*
X119074599Y-103433253D01*
X119054893Y-103447868D01*
X119033850Y-103460480D01*
X119011671Y-103470970D01*
X118988572Y-103479235D01*
X118964773Y-103485196D01*
X118940505Y-103488796D01*
X118916001Y-103490000D01*
X118065999Y-103490000D01*
X118041495Y-103488796D01*
X118017227Y-103485196D01*
X117993428Y-103479235D01*
X117970329Y-103470970D01*
X117948150Y-103460480D01*
X117927107Y-103447868D01*
X117907401Y-103433253D01*
X117889223Y-103416777D01*
X117872747Y-103398599D01*
X117858132Y-103378893D01*
X117845520Y-103357850D01*
X117835030Y-103335671D01*
X117826765Y-103312572D01*
X117820804Y-103288773D01*
X117817204Y-103264505D01*
X117816000Y-103240001D01*
X117816000Y-102339999D01*
X117817204Y-102315495D01*
X117820804Y-102291227D01*
X117826765Y-102267428D01*
X117835030Y-102244329D01*
X117845520Y-102222150D01*
X117858132Y-102201107D01*
X117872747Y-102181401D01*
X117889223Y-102163223D01*
X117907401Y-102146747D01*
X117927107Y-102132132D01*
X117948150Y-102119520D01*
X117970329Y-102109030D01*
X117993428Y-102100765D01*
X118017227Y-102094804D01*
X118041495Y-102091204D01*
X118065999Y-102090000D01*
X118916001Y-102090000D01*
X118940505Y-102091204D01*
G37*
G36*
X118377505Y-119468204D02*
G01*
X118401773Y-119471804D01*
X118425572Y-119477765D01*
X118448671Y-119486030D01*
X118470850Y-119496520D01*
X118491893Y-119509132D01*
X118511599Y-119523747D01*
X118529777Y-119540223D01*
X118546253Y-119558401D01*
X118560868Y-119578107D01*
X118573480Y-119599150D01*
X118583970Y-119621329D01*
X118592235Y-119644428D01*
X118598196Y-119668227D01*
X118601796Y-119692495D01*
X118603000Y-119716999D01*
X118603000Y-120567001D01*
X118601796Y-120591505D01*
X118598196Y-120615773D01*
X118592235Y-120639572D01*
X118583970Y-120662671D01*
X118573480Y-120684850D01*
X118560868Y-120705893D01*
X118546253Y-120725599D01*
X118529777Y-120743777D01*
X118511599Y-120760253D01*
X118491893Y-120774868D01*
X118470850Y-120787480D01*
X118448671Y-120797970D01*
X118425572Y-120806235D01*
X118401773Y-120812196D01*
X118377505Y-120815796D01*
X118353001Y-120817000D01*
X117452999Y-120817000D01*
X117428495Y-120815796D01*
X117404227Y-120812196D01*
X117380428Y-120806235D01*
X117357329Y-120797970D01*
X117335150Y-120787480D01*
X117314107Y-120774868D01*
X117294401Y-120760253D01*
X117276223Y-120743777D01*
X117259747Y-120725599D01*
X117245132Y-120705893D01*
X117232520Y-120684850D01*
X117222030Y-120662671D01*
X117213765Y-120639572D01*
X117207804Y-120615773D01*
X117204204Y-120591505D01*
X117203000Y-120567001D01*
X117203000Y-119716999D01*
X117204204Y-119692495D01*
X117207804Y-119668227D01*
X117213765Y-119644428D01*
X117222030Y-119621329D01*
X117232520Y-119599150D01*
X117245132Y-119578107D01*
X117259747Y-119558401D01*
X117276223Y-119540223D01*
X117294401Y-119523747D01*
X117314107Y-119509132D01*
X117335150Y-119496520D01*
X117357329Y-119486030D01*
X117380428Y-119477765D01*
X117404227Y-119471804D01*
X117428495Y-119468204D01*
X117452999Y-119467000D01*
X118353001Y-119467000D01*
X118377505Y-119468204D01*
G37*
G36*
X121077505Y-119468204D02*
G01*
X121101773Y-119471804D01*
X121125572Y-119477765D01*
X121148671Y-119486030D01*
X121170850Y-119496520D01*
X121191893Y-119509132D01*
X121211599Y-119523747D01*
X121229777Y-119540223D01*
X121246253Y-119558401D01*
X121260868Y-119578107D01*
X121273480Y-119599150D01*
X121283970Y-119621329D01*
X121292235Y-119644428D01*
X121298196Y-119668227D01*
X121301796Y-119692495D01*
X121303000Y-119716999D01*
X121303000Y-120567001D01*
X121301796Y-120591505D01*
X121298196Y-120615773D01*
X121292235Y-120639572D01*
X121283970Y-120662671D01*
X121273480Y-120684850D01*
X121260868Y-120705893D01*
X121246253Y-120725599D01*
X121229777Y-120743777D01*
X121211599Y-120760253D01*
X121191893Y-120774868D01*
X121170850Y-120787480D01*
X121148671Y-120797970D01*
X121125572Y-120806235D01*
X121101773Y-120812196D01*
X121077505Y-120815796D01*
X121053001Y-120817000D01*
X120152999Y-120817000D01*
X120128495Y-120815796D01*
X120104227Y-120812196D01*
X120080428Y-120806235D01*
X120057329Y-120797970D01*
X120035150Y-120787480D01*
X120014107Y-120774868D01*
X119994401Y-120760253D01*
X119976223Y-120743777D01*
X119959747Y-120725599D01*
X119945132Y-120705893D01*
X119932520Y-120684850D01*
X119922030Y-120662671D01*
X119913765Y-120639572D01*
X119907804Y-120615773D01*
X119904204Y-120591505D01*
X119903000Y-120567001D01*
X119903000Y-119716999D01*
X119904204Y-119692495D01*
X119907804Y-119668227D01*
X119913765Y-119644428D01*
X119922030Y-119621329D01*
X119932520Y-119599150D01*
X119945132Y-119578107D01*
X119959747Y-119558401D01*
X119976223Y-119540223D01*
X119994401Y-119523747D01*
X120014107Y-119509132D01*
X120035150Y-119496520D01*
X120057329Y-119486030D01*
X120080428Y-119477765D01*
X120104227Y-119471804D01*
X120128495Y-119468204D01*
X120152999Y-119467000D01*
X121053001Y-119467000D01*
X121077505Y-119468204D01*
G37*
G36*
X119647505Y-127977204D02*
G01*
X119671773Y-127980804D01*
X119695572Y-127986765D01*
X119718671Y-127995030D01*
X119740850Y-128005520D01*
X119761893Y-128018132D01*
X119781599Y-128032747D01*
X119799777Y-128049223D01*
X119816253Y-128067401D01*
X119830868Y-128087107D01*
X119843480Y-128108150D01*
X119853970Y-128130329D01*
X119862235Y-128153428D01*
X119868196Y-128177227D01*
X119871796Y-128201495D01*
X119873000Y-128225999D01*
X119873000Y-129076001D01*
X119871796Y-129100505D01*
X119868196Y-129124773D01*
X119862235Y-129148572D01*
X119853970Y-129171671D01*
X119843480Y-129193850D01*
X119830868Y-129214893D01*
X119816253Y-129234599D01*
X119799777Y-129252777D01*
X119781599Y-129269253D01*
X119761893Y-129283868D01*
X119740850Y-129296480D01*
X119718671Y-129306970D01*
X119695572Y-129315235D01*
X119671773Y-129321196D01*
X119647505Y-129324796D01*
X119623001Y-129326000D01*
X118722999Y-129326000D01*
X118698495Y-129324796D01*
X118674227Y-129321196D01*
X118650428Y-129315235D01*
X118627329Y-129306970D01*
X118605150Y-129296480D01*
X118584107Y-129283868D01*
X118564401Y-129269253D01*
X118546223Y-129252777D01*
X118529747Y-129234599D01*
X118515132Y-129214893D01*
X118502520Y-129193850D01*
X118492030Y-129171671D01*
X118483765Y-129148572D01*
X118477804Y-129124773D01*
X118474204Y-129100505D01*
X118473000Y-129076001D01*
X118473000Y-128225999D01*
X118474204Y-128201495D01*
X118477804Y-128177227D01*
X118483765Y-128153428D01*
X118492030Y-128130329D01*
X118502520Y-128108150D01*
X118515132Y-128087107D01*
X118529747Y-128067401D01*
X118546223Y-128049223D01*
X118564401Y-128032747D01*
X118584107Y-128018132D01*
X118605150Y-128005520D01*
X118627329Y-127995030D01*
X118650428Y-127986765D01*
X118674227Y-127980804D01*
X118698495Y-127977204D01*
X118722999Y-127976000D01*
X119623001Y-127976000D01*
X119647505Y-127977204D01*
G37*
G36*
X122347505Y-127977204D02*
G01*
X122371773Y-127980804D01*
X122395572Y-127986765D01*
X122418671Y-127995030D01*
X122440850Y-128005520D01*
X122461893Y-128018132D01*
X122481599Y-128032747D01*
X122499777Y-128049223D01*
X122516253Y-128067401D01*
X122530868Y-128087107D01*
X122543480Y-128108150D01*
X122553970Y-128130329D01*
X122562235Y-128153428D01*
X122568196Y-128177227D01*
X122571796Y-128201495D01*
X122573000Y-128225999D01*
X122573000Y-129076001D01*
X122571796Y-129100505D01*
X122568196Y-129124773D01*
X122562235Y-129148572D01*
X122553970Y-129171671D01*
X122543480Y-129193850D01*
X122530868Y-129214893D01*
X122516253Y-129234599D01*
X122499777Y-129252777D01*
X122481599Y-129269253D01*
X122461893Y-129283868D01*
X122440850Y-129296480D01*
X122418671Y-129306970D01*
X122395572Y-129315235D01*
X122371773Y-129321196D01*
X122347505Y-129324796D01*
X122323001Y-129326000D01*
X121422999Y-129326000D01*
X121398495Y-129324796D01*
X121374227Y-129321196D01*
X121350428Y-129315235D01*
X121327329Y-129306970D01*
X121305150Y-129296480D01*
X121284107Y-129283868D01*
X121264401Y-129269253D01*
X121246223Y-129252777D01*
X121229747Y-129234599D01*
X121215132Y-129214893D01*
X121202520Y-129193850D01*
X121192030Y-129171671D01*
X121183765Y-129148572D01*
X121177804Y-129124773D01*
X121174204Y-129100505D01*
X121173000Y-129076001D01*
X121173000Y-128225999D01*
X121174204Y-128201495D01*
X121177804Y-128177227D01*
X121183765Y-128153428D01*
X121192030Y-128130329D01*
X121202520Y-128108150D01*
X121215132Y-128087107D01*
X121229747Y-128067401D01*
X121246223Y-128049223D01*
X121264401Y-128032747D01*
X121284107Y-128018132D01*
X121305150Y-128005520D01*
X121327329Y-127995030D01*
X121350428Y-127986765D01*
X121374227Y-127980804D01*
X121398495Y-127977204D01*
X121422999Y-127976000D01*
X122323001Y-127976000D01*
X122347505Y-127977204D01*
G37*
G36*
X104335505Y-128032204D02*
G01*
X104359773Y-128035804D01*
X104383572Y-128041765D01*
X104406671Y-128050030D01*
X104428850Y-128060520D01*
X104449893Y-128073132D01*
X104469599Y-128087747D01*
X104487777Y-128104223D01*
X104504253Y-128122401D01*
X104518868Y-128142107D01*
X104531480Y-128163150D01*
X104541970Y-128185329D01*
X104550235Y-128208428D01*
X104556196Y-128232227D01*
X104559796Y-128256495D01*
X104561000Y-128280999D01*
X104561000Y-129181001D01*
X104559796Y-129205505D01*
X104556196Y-129229773D01*
X104550235Y-129253572D01*
X104541970Y-129276671D01*
X104531480Y-129298850D01*
X104518868Y-129319893D01*
X104504253Y-129339599D01*
X104487777Y-129357777D01*
X104469599Y-129374253D01*
X104449893Y-129388868D01*
X104428850Y-129401480D01*
X104406671Y-129411970D01*
X104383572Y-129420235D01*
X104359773Y-129426196D01*
X104335505Y-129429796D01*
X104311001Y-129431000D01*
X103460999Y-129431000D01*
X103436495Y-129429796D01*
X103412227Y-129426196D01*
X103388428Y-129420235D01*
X103365329Y-129411970D01*
X103343150Y-129401480D01*
X103322107Y-129388868D01*
X103302401Y-129374253D01*
X103284223Y-129357777D01*
X103267747Y-129339599D01*
X103253132Y-129319893D01*
X103240520Y-129298850D01*
X103230030Y-129276671D01*
X103221765Y-129253572D01*
X103215804Y-129229773D01*
X103212204Y-129205505D01*
X103211000Y-129181001D01*
X103211000Y-128280999D01*
X103212204Y-128256495D01*
X103215804Y-128232227D01*
X103221765Y-128208428D01*
X103230030Y-128185329D01*
X103240520Y-128163150D01*
X103253132Y-128142107D01*
X103267747Y-128122401D01*
X103284223Y-128104223D01*
X103302401Y-128087747D01*
X103322107Y-128073132D01*
X103343150Y-128060520D01*
X103365329Y-128050030D01*
X103388428Y-128041765D01*
X103412227Y-128035804D01*
X103436495Y-128032204D01*
X103460999Y-128031000D01*
X104311001Y-128031000D01*
X104335505Y-128032204D01*
G37*
G36*
X104335505Y-125332204D02*
G01*
X104359773Y-125335804D01*
X104383572Y-125341765D01*
X104406671Y-125350030D01*
X104428850Y-125360520D01*
X104449893Y-125373132D01*
X104469599Y-125387747D01*
X104487777Y-125404223D01*
X104504253Y-125422401D01*
X104518868Y-125442107D01*
X104531480Y-125463150D01*
X104541970Y-125485329D01*
X104550235Y-125508428D01*
X104556196Y-125532227D01*
X104559796Y-125556495D01*
X104561000Y-125580999D01*
X104561000Y-126481001D01*
X104559796Y-126505505D01*
X104556196Y-126529773D01*
X104550235Y-126553572D01*
X104541970Y-126576671D01*
X104531480Y-126598850D01*
X104518868Y-126619893D01*
X104504253Y-126639599D01*
X104487777Y-126657777D01*
X104469599Y-126674253D01*
X104449893Y-126688868D01*
X104428850Y-126701480D01*
X104406671Y-126711970D01*
X104383572Y-126720235D01*
X104359773Y-126726196D01*
X104335505Y-126729796D01*
X104311001Y-126731000D01*
X103460999Y-126731000D01*
X103436495Y-126729796D01*
X103412227Y-126726196D01*
X103388428Y-126720235D01*
X103365329Y-126711970D01*
X103343150Y-126701480D01*
X103322107Y-126688868D01*
X103302401Y-126674253D01*
X103284223Y-126657777D01*
X103267747Y-126639599D01*
X103253132Y-126619893D01*
X103240520Y-126598850D01*
X103230030Y-126576671D01*
X103221765Y-126553572D01*
X103215804Y-126529773D01*
X103212204Y-126505505D01*
X103211000Y-126481001D01*
X103211000Y-125580999D01*
X103212204Y-125556495D01*
X103215804Y-125532227D01*
X103221765Y-125508428D01*
X103230030Y-125485329D01*
X103240520Y-125463150D01*
X103253132Y-125442107D01*
X103267747Y-125422401D01*
X103284223Y-125404223D01*
X103302401Y-125387747D01*
X103322107Y-125373132D01*
X103343150Y-125360520D01*
X103365329Y-125350030D01*
X103388428Y-125341765D01*
X103412227Y-125335804D01*
X103436495Y-125332204D01*
X103460999Y-125331000D01*
X104311001Y-125331000D01*
X104335505Y-125332204D01*
G37*
G36*
X108504505Y-122008204D02*
G01*
X108528773Y-122011804D01*
X108552572Y-122017765D01*
X108575671Y-122026030D01*
X108597850Y-122036520D01*
X108618893Y-122049132D01*
X108638599Y-122063747D01*
X108656777Y-122080223D01*
X108673253Y-122098401D01*
X108687868Y-122118107D01*
X108700480Y-122139150D01*
X108710970Y-122161329D01*
X108719235Y-122184428D01*
X108725196Y-122208227D01*
X108728796Y-122232495D01*
X108730000Y-122256999D01*
X108730000Y-123107001D01*
X108728796Y-123131505D01*
X108725196Y-123155773D01*
X108719235Y-123179572D01*
X108710970Y-123202671D01*
X108700480Y-123224850D01*
X108687868Y-123245893D01*
X108673253Y-123265599D01*
X108656777Y-123283777D01*
X108638599Y-123300253D01*
X108618893Y-123314868D01*
X108597850Y-123327480D01*
X108575671Y-123337970D01*
X108552572Y-123346235D01*
X108528773Y-123352196D01*
X108504505Y-123355796D01*
X108480001Y-123357000D01*
X107579999Y-123357000D01*
X107555495Y-123355796D01*
X107531227Y-123352196D01*
X107507428Y-123346235D01*
X107484329Y-123337970D01*
X107462150Y-123327480D01*
X107441107Y-123314868D01*
X107421401Y-123300253D01*
X107403223Y-123283777D01*
X107386747Y-123265599D01*
X107372132Y-123245893D01*
X107359520Y-123224850D01*
X107349030Y-123202671D01*
X107340765Y-123179572D01*
X107334804Y-123155773D01*
X107331204Y-123131505D01*
X107330000Y-123107001D01*
X107330000Y-122256999D01*
X107331204Y-122232495D01*
X107334804Y-122208227D01*
X107340765Y-122184428D01*
X107349030Y-122161329D01*
X107359520Y-122139150D01*
X107372132Y-122118107D01*
X107386747Y-122098401D01*
X107403223Y-122080223D01*
X107421401Y-122063747D01*
X107441107Y-122049132D01*
X107462150Y-122036520D01*
X107484329Y-122026030D01*
X107507428Y-122017765D01*
X107531227Y-122011804D01*
X107555495Y-122008204D01*
X107579999Y-122007000D01*
X108480001Y-122007000D01*
X108504505Y-122008204D01*
G37*
G36*
X105804505Y-122008204D02*
G01*
X105828773Y-122011804D01*
X105852572Y-122017765D01*
X105875671Y-122026030D01*
X105897850Y-122036520D01*
X105918893Y-122049132D01*
X105938599Y-122063747D01*
X105956777Y-122080223D01*
X105973253Y-122098401D01*
X105987868Y-122118107D01*
X106000480Y-122139150D01*
X106010970Y-122161329D01*
X106019235Y-122184428D01*
X106025196Y-122208227D01*
X106028796Y-122232495D01*
X106030000Y-122256999D01*
X106030000Y-123107001D01*
X106028796Y-123131505D01*
X106025196Y-123155773D01*
X106019235Y-123179572D01*
X106010970Y-123202671D01*
X106000480Y-123224850D01*
X105987868Y-123245893D01*
X105973253Y-123265599D01*
X105956777Y-123283777D01*
X105938599Y-123300253D01*
X105918893Y-123314868D01*
X105897850Y-123327480D01*
X105875671Y-123337970D01*
X105852572Y-123346235D01*
X105828773Y-123352196D01*
X105804505Y-123355796D01*
X105780001Y-123357000D01*
X104879999Y-123357000D01*
X104855495Y-123355796D01*
X104831227Y-123352196D01*
X104807428Y-123346235D01*
X104784329Y-123337970D01*
X104762150Y-123327480D01*
X104741107Y-123314868D01*
X104721401Y-123300253D01*
X104703223Y-123283777D01*
X104686747Y-123265599D01*
X104672132Y-123245893D01*
X104659520Y-123224850D01*
X104649030Y-123202671D01*
X104640765Y-123179572D01*
X104634804Y-123155773D01*
X104631204Y-123131505D01*
X104630000Y-123107001D01*
X104630000Y-122256999D01*
X104631204Y-122232495D01*
X104634804Y-122208227D01*
X104640765Y-122184428D01*
X104649030Y-122161329D01*
X104659520Y-122139150D01*
X104672132Y-122118107D01*
X104686747Y-122098401D01*
X104703223Y-122080223D01*
X104721401Y-122063747D01*
X104741107Y-122049132D01*
X104762150Y-122036520D01*
X104784329Y-122026030D01*
X104807428Y-122017765D01*
X104831227Y-122011804D01*
X104855495Y-122008204D01*
X104879999Y-122007000D01*
X105780001Y-122007000D01*
X105804505Y-122008204D01*
G37*
G36*
X87135505Y-122389204D02*
G01*
X87159773Y-122392804D01*
X87183572Y-122398765D01*
X87206671Y-122407030D01*
X87228850Y-122417520D01*
X87249893Y-122430132D01*
X87269599Y-122444747D01*
X87287777Y-122461223D01*
X87304253Y-122479401D01*
X87318868Y-122499107D01*
X87331480Y-122520150D01*
X87341970Y-122542329D01*
X87350235Y-122565428D01*
X87356196Y-122589227D01*
X87359796Y-122613495D01*
X87361000Y-122637999D01*
X87361000Y-123488001D01*
X87359796Y-123512505D01*
X87356196Y-123536773D01*
X87350235Y-123560572D01*
X87341970Y-123583671D01*
X87331480Y-123605850D01*
X87318868Y-123626893D01*
X87304253Y-123646599D01*
X87287777Y-123664777D01*
X87269599Y-123681253D01*
X87249893Y-123695868D01*
X87228850Y-123708480D01*
X87206671Y-123718970D01*
X87183572Y-123727235D01*
X87159773Y-123733196D01*
X87135505Y-123736796D01*
X87111001Y-123738000D01*
X86210999Y-123738000D01*
X86186495Y-123736796D01*
X86162227Y-123733196D01*
X86138428Y-123727235D01*
X86115329Y-123718970D01*
X86093150Y-123708480D01*
X86072107Y-123695868D01*
X86052401Y-123681253D01*
X86034223Y-123664777D01*
X86017747Y-123646599D01*
X86003132Y-123626893D01*
X85990520Y-123605850D01*
X85980030Y-123583671D01*
X85971765Y-123560572D01*
X85965804Y-123536773D01*
X85962204Y-123512505D01*
X85961000Y-123488001D01*
X85961000Y-122637999D01*
X85962204Y-122613495D01*
X85965804Y-122589227D01*
X85971765Y-122565428D01*
X85980030Y-122542329D01*
X85990520Y-122520150D01*
X86003132Y-122499107D01*
X86017747Y-122479401D01*
X86034223Y-122461223D01*
X86052401Y-122444747D01*
X86072107Y-122430132D01*
X86093150Y-122417520D01*
X86115329Y-122407030D01*
X86138428Y-122398765D01*
X86162227Y-122392804D01*
X86186495Y-122389204D01*
X86210999Y-122388000D01*
X87111001Y-122388000D01*
X87135505Y-122389204D01*
G37*
G36*
X89835505Y-122389204D02*
G01*
X89859773Y-122392804D01*
X89883572Y-122398765D01*
X89906671Y-122407030D01*
X89928850Y-122417520D01*
X89949893Y-122430132D01*
X89969599Y-122444747D01*
X89987777Y-122461223D01*
X90004253Y-122479401D01*
X90018868Y-122499107D01*
X90031480Y-122520150D01*
X90041970Y-122542329D01*
X90050235Y-122565428D01*
X90056196Y-122589227D01*
X90059796Y-122613495D01*
X90061000Y-122637999D01*
X90061000Y-123488001D01*
X90059796Y-123512505D01*
X90056196Y-123536773D01*
X90050235Y-123560572D01*
X90041970Y-123583671D01*
X90031480Y-123605850D01*
X90018868Y-123626893D01*
X90004253Y-123646599D01*
X89987777Y-123664777D01*
X89969599Y-123681253D01*
X89949893Y-123695868D01*
X89928850Y-123708480D01*
X89906671Y-123718970D01*
X89883572Y-123727235D01*
X89859773Y-123733196D01*
X89835505Y-123736796D01*
X89811001Y-123738000D01*
X88910999Y-123738000D01*
X88886495Y-123736796D01*
X88862227Y-123733196D01*
X88838428Y-123727235D01*
X88815329Y-123718970D01*
X88793150Y-123708480D01*
X88772107Y-123695868D01*
X88752401Y-123681253D01*
X88734223Y-123664777D01*
X88717747Y-123646599D01*
X88703132Y-123626893D01*
X88690520Y-123605850D01*
X88680030Y-123583671D01*
X88671765Y-123560572D01*
X88665804Y-123536773D01*
X88662204Y-123512505D01*
X88661000Y-123488001D01*
X88661000Y-122637999D01*
X88662204Y-122613495D01*
X88665804Y-122589227D01*
X88671765Y-122565428D01*
X88680030Y-122542329D01*
X88690520Y-122520150D01*
X88703132Y-122499107D01*
X88717747Y-122479401D01*
X88734223Y-122461223D01*
X88752401Y-122444747D01*
X88772107Y-122430132D01*
X88793150Y-122417520D01*
X88815329Y-122407030D01*
X88838428Y-122398765D01*
X88862227Y-122392804D01*
X88886495Y-122389204D01*
X88910999Y-122388000D01*
X89811001Y-122388000D01*
X89835505Y-122389204D01*
G37*
G36*
X103319505Y-106950204D02*
G01*
X103343773Y-106953804D01*
X103367572Y-106959765D01*
X103390671Y-106968030D01*
X103412850Y-106978520D01*
X103433893Y-106991132D01*
X103453599Y-107005747D01*
X103471777Y-107022223D01*
X103488253Y-107040401D01*
X103502868Y-107060107D01*
X103515480Y-107081150D01*
X103525970Y-107103329D01*
X103534235Y-107126428D01*
X103540196Y-107150227D01*
X103543796Y-107174495D01*
X103545000Y-107198999D01*
X103545000Y-108099001D01*
X103543796Y-108123505D01*
X103540196Y-108147773D01*
X103534235Y-108171572D01*
X103525970Y-108194671D01*
X103515480Y-108216850D01*
X103502868Y-108237893D01*
X103488253Y-108257599D01*
X103471777Y-108275777D01*
X103453599Y-108292253D01*
X103433893Y-108306868D01*
X103412850Y-108319480D01*
X103390671Y-108329970D01*
X103367572Y-108338235D01*
X103343773Y-108344196D01*
X103319505Y-108347796D01*
X103295001Y-108349000D01*
X102444999Y-108349000D01*
X102420495Y-108347796D01*
X102396227Y-108344196D01*
X102372428Y-108338235D01*
X102349329Y-108329970D01*
X102327150Y-108319480D01*
X102306107Y-108306868D01*
X102286401Y-108292253D01*
X102268223Y-108275777D01*
X102251747Y-108257599D01*
X102237132Y-108237893D01*
X102224520Y-108216850D01*
X102214030Y-108194671D01*
X102205765Y-108171572D01*
X102199804Y-108147773D01*
X102196204Y-108123505D01*
X102195000Y-108099001D01*
X102195000Y-107198999D01*
X102196204Y-107174495D01*
X102199804Y-107150227D01*
X102205765Y-107126428D01*
X102214030Y-107103329D01*
X102224520Y-107081150D01*
X102237132Y-107060107D01*
X102251747Y-107040401D01*
X102268223Y-107022223D01*
X102286401Y-107005747D01*
X102306107Y-106991132D01*
X102327150Y-106978520D01*
X102349329Y-106968030D01*
X102372428Y-106959765D01*
X102396227Y-106953804D01*
X102420495Y-106950204D01*
X102444999Y-106949000D01*
X103295001Y-106949000D01*
X103319505Y-106950204D01*
G37*
G36*
X103319505Y-104250204D02*
G01*
X103343773Y-104253804D01*
X103367572Y-104259765D01*
X103390671Y-104268030D01*
X103412850Y-104278520D01*
X103433893Y-104291132D01*
X103453599Y-104305747D01*
X103471777Y-104322223D01*
X103488253Y-104340401D01*
X103502868Y-104360107D01*
X103515480Y-104381150D01*
X103525970Y-104403329D01*
X103534235Y-104426428D01*
X103540196Y-104450227D01*
X103543796Y-104474495D01*
X103545000Y-104498999D01*
X103545000Y-105399001D01*
X103543796Y-105423505D01*
X103540196Y-105447773D01*
X103534235Y-105471572D01*
X103525970Y-105494671D01*
X103515480Y-105516850D01*
X103502868Y-105537893D01*
X103488253Y-105557599D01*
X103471777Y-105575777D01*
X103453599Y-105592253D01*
X103433893Y-105606868D01*
X103412850Y-105619480D01*
X103390671Y-105629970D01*
X103367572Y-105638235D01*
X103343773Y-105644196D01*
X103319505Y-105647796D01*
X103295001Y-105649000D01*
X102444999Y-105649000D01*
X102420495Y-105647796D01*
X102396227Y-105644196D01*
X102372428Y-105638235D01*
X102349329Y-105629970D01*
X102327150Y-105619480D01*
X102306107Y-105606868D01*
X102286401Y-105592253D01*
X102268223Y-105575777D01*
X102251747Y-105557599D01*
X102237132Y-105537893D01*
X102224520Y-105516850D01*
X102214030Y-105494671D01*
X102205765Y-105471572D01*
X102199804Y-105447773D01*
X102196204Y-105423505D01*
X102195000Y-105399001D01*
X102195000Y-104498999D01*
X102196204Y-104474495D01*
X102199804Y-104450227D01*
X102205765Y-104426428D01*
X102214030Y-104403329D01*
X102224520Y-104381150D01*
X102237132Y-104360107D01*
X102251747Y-104340401D01*
X102268223Y-104322223D01*
X102286401Y-104305747D01*
X102306107Y-104291132D01*
X102327150Y-104278520D01*
X102349329Y-104268030D01*
X102372428Y-104259765D01*
X102396227Y-104253804D01*
X102420495Y-104250204D01*
X102444999Y-104249000D01*
X103295001Y-104249000D01*
X103319505Y-104250204D01*
G37*
G36*
X61989505Y-91528204D02*
G01*
X62013773Y-91531804D01*
X62037572Y-91537765D01*
X62060671Y-91546030D01*
X62082850Y-91556520D01*
X62103893Y-91569132D01*
X62123599Y-91583747D01*
X62141777Y-91600223D01*
X62158253Y-91618401D01*
X62172868Y-91638107D01*
X62185480Y-91659150D01*
X62195970Y-91681329D01*
X62204235Y-91704428D01*
X62210196Y-91728227D01*
X62213796Y-91752495D01*
X62215000Y-91776999D01*
X62215000Y-92627001D01*
X62213796Y-92651505D01*
X62210196Y-92675773D01*
X62204235Y-92699572D01*
X62195970Y-92722671D01*
X62185480Y-92744850D01*
X62172868Y-92765893D01*
X62158253Y-92785599D01*
X62141777Y-92803777D01*
X62123599Y-92820253D01*
X62103893Y-92834868D01*
X62082850Y-92847480D01*
X62060671Y-92857970D01*
X62037572Y-92866235D01*
X62013773Y-92872196D01*
X61989505Y-92875796D01*
X61965001Y-92877000D01*
X61064999Y-92877000D01*
X61040495Y-92875796D01*
X61016227Y-92872196D01*
X60992428Y-92866235D01*
X60969329Y-92857970D01*
X60947150Y-92847480D01*
X60926107Y-92834868D01*
X60906401Y-92820253D01*
X60888223Y-92803777D01*
X60871747Y-92785599D01*
X60857132Y-92765893D01*
X60844520Y-92744850D01*
X60834030Y-92722671D01*
X60825765Y-92699572D01*
X60819804Y-92675773D01*
X60816204Y-92651505D01*
X60815000Y-92627001D01*
X60815000Y-91776999D01*
X60816204Y-91752495D01*
X60819804Y-91728227D01*
X60825765Y-91704428D01*
X60834030Y-91681329D01*
X60844520Y-91659150D01*
X60857132Y-91638107D01*
X60871747Y-91618401D01*
X60888223Y-91600223D01*
X60906401Y-91583747D01*
X60926107Y-91569132D01*
X60947150Y-91556520D01*
X60969329Y-91546030D01*
X60992428Y-91537765D01*
X61016227Y-91531804D01*
X61040495Y-91528204D01*
X61064999Y-91527000D01*
X61965001Y-91527000D01*
X61989505Y-91528204D01*
G37*
G36*
X64689505Y-91528204D02*
G01*
X64713773Y-91531804D01*
X64737572Y-91537765D01*
X64760671Y-91546030D01*
X64782850Y-91556520D01*
X64803893Y-91569132D01*
X64823599Y-91583747D01*
X64841777Y-91600223D01*
X64858253Y-91618401D01*
X64872868Y-91638107D01*
X64885480Y-91659150D01*
X64895970Y-91681329D01*
X64904235Y-91704428D01*
X64910196Y-91728227D01*
X64913796Y-91752495D01*
X64915000Y-91776999D01*
X64915000Y-92627001D01*
X64913796Y-92651505D01*
X64910196Y-92675773D01*
X64904235Y-92699572D01*
X64895970Y-92722671D01*
X64885480Y-92744850D01*
X64872868Y-92765893D01*
X64858253Y-92785599D01*
X64841777Y-92803777D01*
X64823599Y-92820253D01*
X64803893Y-92834868D01*
X64782850Y-92847480D01*
X64760671Y-92857970D01*
X64737572Y-92866235D01*
X64713773Y-92872196D01*
X64689505Y-92875796D01*
X64665001Y-92877000D01*
X63764999Y-92877000D01*
X63740495Y-92875796D01*
X63716227Y-92872196D01*
X63692428Y-92866235D01*
X63669329Y-92857970D01*
X63647150Y-92847480D01*
X63626107Y-92834868D01*
X63606401Y-92820253D01*
X63588223Y-92803777D01*
X63571747Y-92785599D01*
X63557132Y-92765893D01*
X63544520Y-92744850D01*
X63534030Y-92722671D01*
X63525765Y-92699572D01*
X63519804Y-92675773D01*
X63516204Y-92651505D01*
X63515000Y-92627001D01*
X63515000Y-91776999D01*
X63516204Y-91752495D01*
X63519804Y-91728227D01*
X63525765Y-91704428D01*
X63534030Y-91681329D01*
X63544520Y-91659150D01*
X63557132Y-91638107D01*
X63571747Y-91618401D01*
X63588223Y-91600223D01*
X63606401Y-91583747D01*
X63626107Y-91569132D01*
X63647150Y-91556520D01*
X63669329Y-91546030D01*
X63692428Y-91537765D01*
X63716227Y-91531804D01*
X63740495Y-91528204D01*
X63764999Y-91527000D01*
X64665001Y-91527000D01*
X64689505Y-91528204D01*
G37*
G36*
X109647505Y-118198204D02*
G01*
X109671773Y-118201804D01*
X109695572Y-118207765D01*
X109718671Y-118216030D01*
X109740850Y-118226520D01*
X109761893Y-118239132D01*
X109781599Y-118253747D01*
X109799777Y-118270223D01*
X109816253Y-118288401D01*
X109830868Y-118308107D01*
X109843480Y-118329150D01*
X109853970Y-118351329D01*
X109862235Y-118374428D01*
X109868196Y-118398227D01*
X109871796Y-118422495D01*
X109873000Y-118446999D01*
X109873000Y-119297001D01*
X109871796Y-119321505D01*
X109868196Y-119345773D01*
X109862235Y-119369572D01*
X109853970Y-119392671D01*
X109843480Y-119414850D01*
X109830868Y-119435893D01*
X109816253Y-119455599D01*
X109799777Y-119473777D01*
X109781599Y-119490253D01*
X109761893Y-119504868D01*
X109740850Y-119517480D01*
X109718671Y-119527970D01*
X109695572Y-119536235D01*
X109671773Y-119542196D01*
X109647505Y-119545796D01*
X109623001Y-119547000D01*
X108722999Y-119547000D01*
X108698495Y-119545796D01*
X108674227Y-119542196D01*
X108650428Y-119536235D01*
X108627329Y-119527970D01*
X108605150Y-119517480D01*
X108584107Y-119504868D01*
X108564401Y-119490253D01*
X108546223Y-119473777D01*
X108529747Y-119455599D01*
X108515132Y-119435893D01*
X108502520Y-119414850D01*
X108492030Y-119392671D01*
X108483765Y-119369572D01*
X108477804Y-119345773D01*
X108474204Y-119321505D01*
X108473000Y-119297001D01*
X108473000Y-118446999D01*
X108474204Y-118422495D01*
X108477804Y-118398227D01*
X108483765Y-118374428D01*
X108492030Y-118351329D01*
X108502520Y-118329150D01*
X108515132Y-118308107D01*
X108529747Y-118288401D01*
X108546223Y-118270223D01*
X108564401Y-118253747D01*
X108584107Y-118239132D01*
X108605150Y-118226520D01*
X108627329Y-118216030D01*
X108650428Y-118207765D01*
X108674227Y-118201804D01*
X108698495Y-118198204D01*
X108722999Y-118197000D01*
X109623001Y-118197000D01*
X109647505Y-118198204D01*
G37*
G36*
X106947505Y-118198204D02*
G01*
X106971773Y-118201804D01*
X106995572Y-118207765D01*
X107018671Y-118216030D01*
X107040850Y-118226520D01*
X107061893Y-118239132D01*
X107081599Y-118253747D01*
X107099777Y-118270223D01*
X107116253Y-118288401D01*
X107130868Y-118308107D01*
X107143480Y-118329150D01*
X107153970Y-118351329D01*
X107162235Y-118374428D01*
X107168196Y-118398227D01*
X107171796Y-118422495D01*
X107173000Y-118446999D01*
X107173000Y-119297001D01*
X107171796Y-119321505D01*
X107168196Y-119345773D01*
X107162235Y-119369572D01*
X107153970Y-119392671D01*
X107143480Y-119414850D01*
X107130868Y-119435893D01*
X107116253Y-119455599D01*
X107099777Y-119473777D01*
X107081599Y-119490253D01*
X107061893Y-119504868D01*
X107040850Y-119517480D01*
X107018671Y-119527970D01*
X106995572Y-119536235D01*
X106971773Y-119542196D01*
X106947505Y-119545796D01*
X106923001Y-119547000D01*
X106022999Y-119547000D01*
X105998495Y-119545796D01*
X105974227Y-119542196D01*
X105950428Y-119536235D01*
X105927329Y-119527970D01*
X105905150Y-119517480D01*
X105884107Y-119504868D01*
X105864401Y-119490253D01*
X105846223Y-119473777D01*
X105829747Y-119455599D01*
X105815132Y-119435893D01*
X105802520Y-119414850D01*
X105792030Y-119392671D01*
X105783765Y-119369572D01*
X105777804Y-119345773D01*
X105774204Y-119321505D01*
X105773000Y-119297001D01*
X105773000Y-118446999D01*
X105774204Y-118422495D01*
X105777804Y-118398227D01*
X105783765Y-118374428D01*
X105792030Y-118351329D01*
X105802520Y-118329150D01*
X105815132Y-118308107D01*
X105829747Y-118288401D01*
X105846223Y-118270223D01*
X105864401Y-118253747D01*
X105884107Y-118239132D01*
X105905150Y-118226520D01*
X105927329Y-118216030D01*
X105950428Y-118207765D01*
X105974227Y-118201804D01*
X105998495Y-118198204D01*
X106022999Y-118197000D01*
X106923001Y-118197000D01*
X106947505Y-118198204D01*
G37*
D14*
X145124000Y-88801000D03*
D15*
X137124000Y-94001000D03*
X138324000Y-91301000D03*
D16*
X133924000Y-84701000D03*
D15*
X141224000Y-84201000D03*
D17*
X55118000Y-66167000D03*
X55118000Y-68707000D03*
D13*
G36*
X55557207Y-70448926D02*
G01*
X55596036Y-70454686D01*
X55634114Y-70464224D01*
X55671073Y-70477448D01*
X55706559Y-70494231D01*
X55740228Y-70514412D01*
X55771757Y-70537796D01*
X55800843Y-70564157D01*
X55827204Y-70593243D01*
X55850588Y-70624772D01*
X55870769Y-70658441D01*
X55887552Y-70693927D01*
X55900776Y-70730886D01*
X55910314Y-70768964D01*
X55916074Y-70807793D01*
X55918000Y-70847000D01*
X55918000Y-71647000D01*
X55916074Y-71686207D01*
X55910314Y-71725036D01*
X55900776Y-71763114D01*
X55887552Y-71800073D01*
X55870769Y-71835559D01*
X55850588Y-71869228D01*
X55827204Y-71900757D01*
X55800843Y-71929843D01*
X55771757Y-71956204D01*
X55740228Y-71979588D01*
X55706559Y-71999769D01*
X55671073Y-72016552D01*
X55634114Y-72029776D01*
X55596036Y-72039314D01*
X55557207Y-72045074D01*
X55518000Y-72047000D01*
X54718000Y-72047000D01*
X54678793Y-72045074D01*
X54639964Y-72039314D01*
X54601886Y-72029776D01*
X54564927Y-72016552D01*
X54529441Y-71999769D01*
X54495772Y-71979588D01*
X54464243Y-71956204D01*
X54435157Y-71929843D01*
X54408796Y-71900757D01*
X54385412Y-71869228D01*
X54365231Y-71835559D01*
X54348448Y-71800073D01*
X54335224Y-71763114D01*
X54325686Y-71725036D01*
X54319926Y-71686207D01*
X54318000Y-71647000D01*
X54318000Y-70847000D01*
X54319926Y-70807793D01*
X54325686Y-70768964D01*
X54335224Y-70730886D01*
X54348448Y-70693927D01*
X54365231Y-70658441D01*
X54385412Y-70624772D01*
X54408796Y-70593243D01*
X54435157Y-70564157D01*
X54464243Y-70537796D01*
X54495772Y-70514412D01*
X54529441Y-70494231D01*
X54564927Y-70477448D01*
X54601886Y-70464224D01*
X54639964Y-70454686D01*
X54678793Y-70448926D01*
X54718000Y-70447000D01*
X55518000Y-70447000D01*
X55557207Y-70448926D01*
G37*
D17*
X50038000Y-71247000D03*
X50038000Y-66167000D03*
D18*
X130810000Y-108839000D03*
D13*
G36*
X93749691Y-133497553D02*
G01*
X93770926Y-133500703D01*
X93791750Y-133505919D01*
X93811962Y-133513151D01*
X93831368Y-133522330D01*
X93849781Y-133533366D01*
X93867024Y-133546154D01*
X93882930Y-133560570D01*
X93897346Y-133576476D01*
X93910134Y-133593719D01*
X93921170Y-133612132D01*
X93930349Y-133631538D01*
X93937581Y-133651750D01*
X93942797Y-133672574D01*
X93945947Y-133693809D01*
X93947000Y-133715250D01*
X93947000Y-134152750D01*
X93945947Y-134174191D01*
X93942797Y-134195426D01*
X93937581Y-134216250D01*
X93930349Y-134236462D01*
X93921170Y-134255868D01*
X93910134Y-134274281D01*
X93897346Y-134291524D01*
X93882930Y-134307430D01*
X93867024Y-134321846D01*
X93849781Y-134334634D01*
X93831368Y-134345670D01*
X93811962Y-134354849D01*
X93791750Y-134362081D01*
X93770926Y-134367297D01*
X93749691Y-134370447D01*
X93728250Y-134371500D01*
X93215750Y-134371500D01*
X93194309Y-134370447D01*
X93173074Y-134367297D01*
X93152250Y-134362081D01*
X93132038Y-134354849D01*
X93112632Y-134345670D01*
X93094219Y-134334634D01*
X93076976Y-134321846D01*
X93061070Y-134307430D01*
X93046654Y-134291524D01*
X93033866Y-134274281D01*
X93022830Y-134255868D01*
X93013651Y-134236462D01*
X93006419Y-134216250D01*
X93001203Y-134195426D01*
X92998053Y-134174191D01*
X92997000Y-134152750D01*
X92997000Y-133715250D01*
X92998053Y-133693809D01*
X93001203Y-133672574D01*
X93006419Y-133651750D01*
X93013651Y-133631538D01*
X93022830Y-133612132D01*
X93033866Y-133593719D01*
X93046654Y-133576476D01*
X93061070Y-133560570D01*
X93076976Y-133546154D01*
X93094219Y-133533366D01*
X93112632Y-133522330D01*
X93132038Y-133513151D01*
X93152250Y-133505919D01*
X93173074Y-133500703D01*
X93194309Y-133497553D01*
X93215750Y-133496500D01*
X93728250Y-133496500D01*
X93749691Y-133497553D01*
G37*
G36*
X93749691Y-135072553D02*
G01*
X93770926Y-135075703D01*
X93791750Y-135080919D01*
X93811962Y-135088151D01*
X93831368Y-135097330D01*
X93849781Y-135108366D01*
X93867024Y-135121154D01*
X93882930Y-135135570D01*
X93897346Y-135151476D01*
X93910134Y-135168719D01*
X93921170Y-135187132D01*
X93930349Y-135206538D01*
X93937581Y-135226750D01*
X93942797Y-135247574D01*
X93945947Y-135268809D01*
X93947000Y-135290250D01*
X93947000Y-135727750D01*
X93945947Y-135749191D01*
X93942797Y-135770426D01*
X93937581Y-135791250D01*
X93930349Y-135811462D01*
X93921170Y-135830868D01*
X93910134Y-135849281D01*
X93897346Y-135866524D01*
X93882930Y-135882430D01*
X93867024Y-135896846D01*
X93849781Y-135909634D01*
X93831368Y-135920670D01*
X93811962Y-135929849D01*
X93791750Y-135937081D01*
X93770926Y-135942297D01*
X93749691Y-135945447D01*
X93728250Y-135946500D01*
X93215750Y-135946500D01*
X93194309Y-135945447D01*
X93173074Y-135942297D01*
X93152250Y-135937081D01*
X93132038Y-135929849D01*
X93112632Y-135920670D01*
X93094219Y-135909634D01*
X93076976Y-135896846D01*
X93061070Y-135882430D01*
X93046654Y-135866524D01*
X93033866Y-135849281D01*
X93022830Y-135830868D01*
X93013651Y-135811462D01*
X93006419Y-135791250D01*
X93001203Y-135770426D01*
X92998053Y-135749191D01*
X92997000Y-135727750D01*
X92997000Y-135290250D01*
X92998053Y-135268809D01*
X93001203Y-135247574D01*
X93006419Y-135226750D01*
X93013651Y-135206538D01*
X93022830Y-135187132D01*
X93033866Y-135168719D01*
X93046654Y-135151476D01*
X93061070Y-135135570D01*
X93076976Y-135121154D01*
X93094219Y-135108366D01*
X93112632Y-135097330D01*
X93132038Y-135088151D01*
X93152250Y-135080919D01*
X93173074Y-135075703D01*
X93194309Y-135072553D01*
X93215750Y-135071500D01*
X93728250Y-135071500D01*
X93749691Y-135072553D01*
G37*
D19*
X141478000Y-61722000D03*
D20*
X141452600Y-50673000D03*
D21*
X138978000Y-58801000D03*
X138978000Y-53801000D03*
X141478000Y-58801000D03*
X141478000Y-56301000D03*
X141478000Y-53801000D03*
D22*
X141528000Y-43708000D03*
D23*
X144018000Y-44958000D03*
X144018000Y-49458000D03*
D22*
X141528000Y-50718000D03*
X141528000Y-72156000D03*
D23*
X144018000Y-73406000D03*
X144018000Y-77906000D03*
D22*
X141528000Y-79166000D03*
X141528000Y-61742000D03*
D23*
X144018000Y-62992000D03*
X144018000Y-67492000D03*
D22*
X141528000Y-68752000D03*
D24*
X64075000Y-83058000D03*
X64075000Y-88138000D03*
D25*
X73225000Y-85598000D03*
D26*
X98693000Y-110889000D03*
X98693000Y-113139000D03*
X100443000Y-113139000D03*
X100443000Y-110889000D03*
X93613000Y-110889000D03*
X93613000Y-113139000D03*
X95363000Y-113139000D03*
X95363000Y-110889000D03*
D27*
X143129000Y-127508000D03*
D28*
X143129000Y-124968000D03*
X143129000Y-122428000D03*
X143129000Y-119888000D03*
D29*
X135509000Y-122047000D03*
D30*
X135509000Y-124047000D03*
X135509000Y-126047000D03*
X135509000Y-128047000D03*
D29*
X127762000Y-54483000D03*
D30*
X127762000Y-56483000D03*
X127762000Y-58483000D03*
X127762000Y-60483000D03*
X127762000Y-62483000D03*
D29*
X61087000Y-100330000D03*
D30*
X61087000Y-102330000D03*
X61087000Y-104330000D03*
X61087000Y-106330000D03*
D29*
X85058000Y-132080000D03*
D30*
X83058000Y-132080000D03*
X81058000Y-132080000D03*
X79058000Y-132080000D03*
X77058000Y-132080000D03*
D31*
X53848000Y-53213000D03*
D32*
X53848000Y-58213000D03*
D33*
X70358000Y-135878000D03*
X70358000Y-134378000D03*
D34*
X80391000Y-124884000D03*
X80391000Y-127084000D03*
D35*
X53212000Y-125634000D03*
X53212000Y-113634000D03*
D36*
X55912000Y-118364000D03*
X55912000Y-120904000D03*
X57912000Y-120904000D03*
X57912000Y-118364000D03*
D37*
X68596000Y-111633000D03*
X70596000Y-111633000D03*
D38*
X103505000Y-119491000D03*
X103505000Y-117491000D03*
D39*
X86372000Y-121031000D03*
X87872000Y-121031000D03*
X86372000Y-119507000D03*
X87872000Y-119507000D03*
X86372000Y-117983000D03*
X87872000Y-117983000D03*
D40*
X80137000Y-103874000D03*
X80137000Y-102374000D03*
D41*
X68973000Y-113157000D03*
X70473000Y-113157000D03*
X70981000Y-114808000D03*
X69481000Y-114808000D03*
D40*
X77978000Y-122186000D03*
X77978000Y-123686000D03*
D42*
X74482000Y-120762000D03*
X74982000Y-120762000D03*
X75482000Y-120762000D03*
X75982000Y-120762000D03*
X76482000Y-120762000D03*
X76982000Y-120762000D03*
X77482000Y-120762000D03*
X77982000Y-120762000D03*
X78482000Y-120762000D03*
X78982000Y-120762000D03*
X79482000Y-120762000D03*
X79982000Y-120762000D03*
X80482000Y-120762000D03*
X80982000Y-120762000D03*
X81482000Y-120762000D03*
X81982000Y-120762000D03*
D43*
X83932000Y-118812000D03*
X83932000Y-118312000D03*
X83932000Y-117812000D03*
X83932000Y-117312000D03*
X83932000Y-116812000D03*
X83932000Y-116312000D03*
X83932000Y-115812000D03*
X83932000Y-115312000D03*
X83932000Y-114812000D03*
X83932000Y-114312000D03*
X83932000Y-113812000D03*
X83932000Y-113312000D03*
X83932000Y-112812000D03*
X83932000Y-112312000D03*
X83932000Y-111812000D03*
X83932000Y-111312000D03*
D42*
X81982000Y-109362000D03*
X81482000Y-109362000D03*
X80982000Y-109362000D03*
X80482000Y-109362000D03*
X79982000Y-109362000D03*
X79482000Y-109362000D03*
X78982000Y-109362000D03*
X78482000Y-109362000D03*
X77982000Y-109362000D03*
X77482000Y-109362000D03*
X76982000Y-109362000D03*
X76482000Y-109362000D03*
X75982000Y-109362000D03*
X75482000Y-109362000D03*
X74982000Y-109362000D03*
X74482000Y-109362000D03*
D43*
X72532000Y-111312000D03*
X72532000Y-111812000D03*
X72532000Y-112312000D03*
X72532000Y-112812000D03*
X72532000Y-113312000D03*
X72532000Y-113812000D03*
X72532000Y-114312000D03*
X72532000Y-114812000D03*
X72532000Y-115312000D03*
X72532000Y-115812000D03*
X72532000Y-116312000D03*
X72532000Y-116812000D03*
X72532000Y-117312000D03*
X72532000Y-117812000D03*
X72532000Y-118312000D03*
X72532000Y-118812000D03*
D27*
X67818000Y-131699000D03*
D28*
X67818000Y-129159000D03*
X70358000Y-131699000D03*
X70358000Y-129159000D03*
X72898000Y-131699000D03*
X72898000Y-129159000D03*
D44*
X64346000Y-117864000D03*
D45*
X64346000Y-116144000D03*
X62146000Y-116144000D03*
X62146000Y-118044000D03*
D39*
X63524000Y-128143000D03*
X65024000Y-128143000D03*
X64123000Y-122682000D03*
X62623000Y-122682000D03*
X64123000Y-121031000D03*
X62623000Y-121031000D03*
D41*
X81800000Y-107823000D03*
X83300000Y-107823000D03*
D46*
X78232000Y-56007000D03*
D47*
X78232000Y-48507000D03*
D40*
X64262000Y-131306000D03*
X64262000Y-129806000D03*
D48*
X107655000Y-114722000D03*
X107655000Y-115372000D03*
X107655000Y-116022000D03*
X107655000Y-116672000D03*
X112055000Y-116672000D03*
X112055000Y-116022000D03*
X112055000Y-115372000D03*
X112055000Y-114722000D03*
D49*
X100132000Y-118457000D03*
X100132000Y-119107000D03*
X100132000Y-119757000D03*
X100132000Y-120407000D03*
X100132000Y-121057000D03*
X100132000Y-121707000D03*
X100132000Y-122357000D03*
X100132000Y-123007000D03*
X100132000Y-123657000D03*
X100132000Y-124307000D03*
X100132000Y-124957000D03*
X100132000Y-125607000D03*
X100132000Y-126257000D03*
X100132000Y-126907000D03*
X94432000Y-126907000D03*
X94432000Y-126257000D03*
X94432000Y-125607000D03*
X94432000Y-124957000D03*
X94432000Y-124307000D03*
X94432000Y-123657000D03*
X94432000Y-123007000D03*
X94432000Y-122357000D03*
X94432000Y-121707000D03*
X94432000Y-121057000D03*
X94432000Y-120407000D03*
X94432000Y-119757000D03*
X94432000Y-119107000D03*
X94432000Y-118457000D03*
D50*
X122588000Y-122428000D03*
X122588000Y-123698000D03*
X122588000Y-124968000D03*
X122588000Y-126238000D03*
X117188000Y-126238000D03*
X117188000Y-124968000D03*
X117188000Y-123698000D03*
X117188000Y-122428000D03*
D51*
X68768000Y-96858000D03*
X66868000Y-96858000D03*
X66868000Y-94658000D03*
X67818000Y-94658000D03*
X68768000Y-94658000D03*
D52*
X97747000Y-106995000D03*
X97747000Y-106045000D03*
X97747000Y-105095000D03*
X95547000Y-105095000D03*
X95547000Y-106995000D03*
D47*
X78232000Y-66922000D03*
D46*
X78232000Y-74422000D03*
D40*
X113919000Y-117336000D03*
X113919000Y-115836000D03*
X87503000Y-97270000D03*
X87503000Y-95770000D03*
X106680000Y-90158000D03*
X106680000Y-88658000D03*
X105791000Y-114820000D03*
X105791000Y-116320000D03*
X98298000Y-90182000D03*
X98298000Y-91682000D03*
D41*
X118098000Y-97282000D03*
X116598000Y-97282000D03*
D40*
X60706000Y-84582000D03*
X60706000Y-83082000D03*
D41*
X100572000Y-99949000D03*
X99072000Y-99949000D03*
X100826000Y-104902000D03*
X99326000Y-104902000D03*
X60833000Y-89662000D03*
X62333000Y-89662000D03*
X66941000Y-92837000D03*
X68441000Y-92837000D03*
D40*
X99314000Y-106311000D03*
X99314000Y-107811000D03*
D41*
X68568000Y-98425000D03*
X67068000Y-98425000D03*
X96278000Y-108585000D03*
X97778000Y-108585000D03*
D40*
X96901000Y-110248000D03*
X96901000Y-111748000D03*
X101981000Y-111875000D03*
X101981000Y-110375000D03*
D41*
X92825000Y-127127000D03*
X91325000Y-127127000D03*
D40*
X101727000Y-117360000D03*
X101727000Y-118860000D03*
D41*
X91452000Y-123063000D03*
X92952000Y-123063000D03*
X103239000Y-122936000D03*
X101739000Y-122936000D03*
X101588000Y-128524000D03*
X100088000Y-128524000D03*
D40*
X101854000Y-125361000D03*
X101854000Y-126861000D03*
X116967000Y-129147000D03*
X116967000Y-127647000D03*
D41*
X112661000Y-128143000D03*
X114161000Y-128143000D03*
D40*
X112903000Y-120257000D03*
X112903000Y-118757000D03*
X122809000Y-119646000D03*
X122809000Y-121146000D03*
D41*
X127242000Y-128143000D03*
X125742000Y-128143000D03*
D40*
X128397000Y-123813000D03*
X128397000Y-122313000D03*
X115443000Y-121678000D03*
X115443000Y-123178000D03*
X115443000Y-125361000D03*
X115443000Y-126861000D03*
X124206000Y-123710000D03*
X124206000Y-125210000D03*
X124333000Y-126631000D03*
X124333000Y-128131000D03*
D41*
X122543000Y-106426000D03*
X121043000Y-106426000D03*
X139053000Y-105791000D03*
X137553000Y-105791000D03*
X122567000Y-103124000D03*
X124067000Y-103124000D03*
X137553000Y-102489000D03*
X139053000Y-102489000D03*
X55360000Y-108839000D03*
X53860000Y-108839000D03*
D40*
X132334000Y-56122000D03*
X132334000Y-54622000D03*
X135128000Y-58940000D03*
X135128000Y-60440000D03*
X132969000Y-61226000D03*
X132969000Y-62726000D03*
D41*
X86983000Y-116459000D03*
X85483000Y-116459000D03*
D53*
X67691000Y-68843000D03*
X67691000Y-73143000D03*
X67310000Y-55744000D03*
X67310000Y-51444000D03*
D40*
X100711000Y-107811000D03*
X100711000Y-106311000D03*
D33*
X90297000Y-114034000D03*
X90297000Y-112534000D03*
X88646000Y-111621000D03*
X88646000Y-110121000D03*
X97536000Y-116701000D03*
X97536000Y-115201000D03*
D39*
X94500000Y-115189000D03*
X96000000Y-115189000D03*
X112510000Y-123444000D03*
X111010000Y-123444000D03*
X127242000Y-130683000D03*
X125742000Y-130683000D03*
X111137000Y-121539000D03*
X112637000Y-121539000D03*
D33*
X128524000Y-125107000D03*
X128524000Y-126607000D03*
D39*
X114161000Y-126619000D03*
X112661000Y-126619000D03*
D33*
X128651000Y-129655000D03*
X128651000Y-128155000D03*
D39*
X114161000Y-125095000D03*
X112661000Y-125095000D03*
D33*
X113919000Y-121805000D03*
X113919000Y-123305000D03*
D39*
X115685000Y-120015000D03*
X114185000Y-120015000D03*
X125615000Y-126746000D03*
X127115000Y-126746000D03*
X126988000Y-125222000D03*
X125488000Y-125222000D03*
X126988000Y-123698000D03*
X125488000Y-123698000D03*
X118249000Y-117983000D03*
X119749000Y-117983000D03*
X127115000Y-119126000D03*
X125615000Y-119126000D03*
X122694000Y-110236000D03*
X124194000Y-110236000D03*
X138926000Y-109855000D03*
X137426000Y-109855000D03*
X137426000Y-108331000D03*
X138926000Y-108331000D03*
X122694000Y-108712000D03*
X124194000Y-108712000D03*
X122567000Y-104648000D03*
X124067000Y-104648000D03*
X138926000Y-104267000D03*
X137426000Y-104267000D03*
X55360000Y-110363000D03*
X53860000Y-110363000D03*
D33*
X130556000Y-54622000D03*
X130556000Y-56122000D03*
D39*
X123964000Y-58674000D03*
X125464000Y-58674000D03*
D33*
X131318000Y-62726000D03*
X131318000Y-61226000D03*
X137922000Y-122313000D03*
X137922000Y-123813000D03*
X140081000Y-125718000D03*
X140081000Y-124218000D03*
X82042000Y-127139000D03*
X82042000Y-128639000D03*
D54*
X99695000Y-103362000D03*
X98745000Y-101362000D03*
X100645000Y-101362000D03*
D55*
X135510000Y-103124000D03*
X135510000Y-104394000D03*
X135510000Y-105664000D03*
X135510000Y-106934000D03*
X135510000Y-108204000D03*
X135510000Y-109474000D03*
X135510000Y-110744000D03*
X135510000Y-112014000D03*
X135510000Y-113284000D03*
X135510000Y-114554000D03*
X126110000Y-114554000D03*
X126110000Y-113284000D03*
X126110000Y-112014000D03*
X126110000Y-110744000D03*
X126110000Y-109474000D03*
X126110000Y-108204000D03*
X126110000Y-106934000D03*
X126110000Y-105664000D03*
X126110000Y-104394000D03*
X126110000Y-103124000D03*
D56*
X130810000Y-108839000D03*
D13*
G36*
X140403505Y-122063204D02*
G01*
X140427773Y-122066804D01*
X140451572Y-122072765D01*
X140474671Y-122081030D01*
X140496850Y-122091520D01*
X140517893Y-122104132D01*
X140537599Y-122118747D01*
X140555777Y-122135223D01*
X140572253Y-122153401D01*
X140586868Y-122173107D01*
X140599480Y-122194150D01*
X140609970Y-122216329D01*
X140618235Y-122239428D01*
X140624196Y-122263227D01*
X140627796Y-122287495D01*
X140629000Y-122311999D01*
X140629000Y-123212001D01*
X140627796Y-123236505D01*
X140624196Y-123260773D01*
X140618235Y-123284572D01*
X140609970Y-123307671D01*
X140599480Y-123329850D01*
X140586868Y-123350893D01*
X140572253Y-123370599D01*
X140555777Y-123388777D01*
X140537599Y-123405253D01*
X140517893Y-123419868D01*
X140496850Y-123432480D01*
X140474671Y-123442970D01*
X140451572Y-123451235D01*
X140427773Y-123457196D01*
X140403505Y-123460796D01*
X140379001Y-123462000D01*
X139528999Y-123462000D01*
X139504495Y-123460796D01*
X139480227Y-123457196D01*
X139456428Y-123451235D01*
X139433329Y-123442970D01*
X139411150Y-123432480D01*
X139390107Y-123419868D01*
X139370401Y-123405253D01*
X139352223Y-123388777D01*
X139335747Y-123370599D01*
X139321132Y-123350893D01*
X139308520Y-123329850D01*
X139298030Y-123307671D01*
X139289765Y-123284572D01*
X139283804Y-123260773D01*
X139280204Y-123236505D01*
X139279000Y-123212001D01*
X139279000Y-122311999D01*
X139280204Y-122287495D01*
X139283804Y-122263227D01*
X139289765Y-122239428D01*
X139298030Y-122216329D01*
X139308520Y-122194150D01*
X139321132Y-122173107D01*
X139335747Y-122153401D01*
X139352223Y-122135223D01*
X139370401Y-122118747D01*
X139390107Y-122104132D01*
X139411150Y-122091520D01*
X139433329Y-122081030D01*
X139456428Y-122072765D01*
X139480227Y-122066804D01*
X139504495Y-122063204D01*
X139528999Y-122062000D01*
X140379001Y-122062000D01*
X140403505Y-122063204D01*
G37*
G36*
X140403505Y-119363204D02*
G01*
X140427773Y-119366804D01*
X140451572Y-119372765D01*
X140474671Y-119381030D01*
X140496850Y-119391520D01*
X140517893Y-119404132D01*
X140537599Y-119418747D01*
X140555777Y-119435223D01*
X140572253Y-119453401D01*
X140586868Y-119473107D01*
X140599480Y-119494150D01*
X140609970Y-119516329D01*
X140618235Y-119539428D01*
X140624196Y-119563227D01*
X140627796Y-119587495D01*
X140629000Y-119611999D01*
X140629000Y-120512001D01*
X140627796Y-120536505D01*
X140624196Y-120560773D01*
X140618235Y-120584572D01*
X140609970Y-120607671D01*
X140599480Y-120629850D01*
X140586868Y-120650893D01*
X140572253Y-120670599D01*
X140555777Y-120688777D01*
X140537599Y-120705253D01*
X140517893Y-120719868D01*
X140496850Y-120732480D01*
X140474671Y-120742970D01*
X140451572Y-120751235D01*
X140427773Y-120757196D01*
X140403505Y-120760796D01*
X140379001Y-120762000D01*
X139528999Y-120762000D01*
X139504495Y-120760796D01*
X139480227Y-120757196D01*
X139456428Y-120751235D01*
X139433329Y-120742970D01*
X139411150Y-120732480D01*
X139390107Y-120719868D01*
X139370401Y-120705253D01*
X139352223Y-120688777D01*
X139335747Y-120670599D01*
X139321132Y-120650893D01*
X139308520Y-120629850D01*
X139298030Y-120607671D01*
X139289765Y-120584572D01*
X139283804Y-120560773D01*
X139280204Y-120536505D01*
X139279000Y-120512001D01*
X139279000Y-119611999D01*
X139280204Y-119587495D01*
X139283804Y-119563227D01*
X139289765Y-119539428D01*
X139298030Y-119516329D01*
X139308520Y-119494150D01*
X139321132Y-119473107D01*
X139335747Y-119453401D01*
X139352223Y-119435223D01*
X139370401Y-119418747D01*
X139390107Y-119404132D01*
X139411150Y-119391520D01*
X139433329Y-119381030D01*
X139456428Y-119372765D01*
X139480227Y-119366804D01*
X139504495Y-119363204D01*
X139528999Y-119362000D01*
X140379001Y-119362000D01*
X140403505Y-119363204D01*
G37*
G36*
X130856505Y-50634204D02*
G01*
X130880773Y-50637804D01*
X130904572Y-50643765D01*
X130927671Y-50652030D01*
X130949850Y-50662520D01*
X130970893Y-50675132D01*
X130990599Y-50689747D01*
X131008777Y-50706223D01*
X131025253Y-50724401D01*
X131039868Y-50744107D01*
X131052480Y-50765150D01*
X131062970Y-50787329D01*
X131071235Y-50810428D01*
X131077196Y-50834227D01*
X131080796Y-50858495D01*
X131082000Y-50882999D01*
X131082000Y-51733001D01*
X131080796Y-51757505D01*
X131077196Y-51781773D01*
X131071235Y-51805572D01*
X131062970Y-51828671D01*
X131052480Y-51850850D01*
X131039868Y-51871893D01*
X131025253Y-51891599D01*
X131008777Y-51909777D01*
X130990599Y-51926253D01*
X130970893Y-51940868D01*
X130949850Y-51953480D01*
X130927671Y-51963970D01*
X130904572Y-51972235D01*
X130880773Y-51978196D01*
X130856505Y-51981796D01*
X130832001Y-51983000D01*
X129931999Y-51983000D01*
X129907495Y-51981796D01*
X129883227Y-51978196D01*
X129859428Y-51972235D01*
X129836329Y-51963970D01*
X129814150Y-51953480D01*
X129793107Y-51940868D01*
X129773401Y-51926253D01*
X129755223Y-51909777D01*
X129738747Y-51891599D01*
X129724132Y-51871893D01*
X129711520Y-51850850D01*
X129701030Y-51828671D01*
X129692765Y-51805572D01*
X129686804Y-51781773D01*
X129683204Y-51757505D01*
X129682000Y-51733001D01*
X129682000Y-50882999D01*
X129683204Y-50858495D01*
X129686804Y-50834227D01*
X129692765Y-50810428D01*
X129701030Y-50787329D01*
X129711520Y-50765150D01*
X129724132Y-50744107D01*
X129738747Y-50724401D01*
X129755223Y-50706223D01*
X129773401Y-50689747D01*
X129793107Y-50675132D01*
X129814150Y-50662520D01*
X129836329Y-50652030D01*
X129859428Y-50643765D01*
X129883227Y-50637804D01*
X129907495Y-50634204D01*
X129931999Y-50633000D01*
X130832001Y-50633000D01*
X130856505Y-50634204D01*
G37*
G36*
X128156505Y-50634204D02*
G01*
X128180773Y-50637804D01*
X128204572Y-50643765D01*
X128227671Y-50652030D01*
X128249850Y-50662520D01*
X128270893Y-50675132D01*
X128290599Y-50689747D01*
X128308777Y-50706223D01*
X128325253Y-50724401D01*
X128339868Y-50744107D01*
X128352480Y-50765150D01*
X128362970Y-50787329D01*
X128371235Y-50810428D01*
X128377196Y-50834227D01*
X128380796Y-50858495D01*
X128382000Y-50882999D01*
X128382000Y-51733001D01*
X128380796Y-51757505D01*
X128377196Y-51781773D01*
X128371235Y-51805572D01*
X128362970Y-51828671D01*
X128352480Y-51850850D01*
X128339868Y-51871893D01*
X128325253Y-51891599D01*
X128308777Y-51909777D01*
X128290599Y-51926253D01*
X128270893Y-51940868D01*
X128249850Y-51953480D01*
X128227671Y-51963970D01*
X128204572Y-51972235D01*
X128180773Y-51978196D01*
X128156505Y-51981796D01*
X128132001Y-51983000D01*
X127231999Y-51983000D01*
X127207495Y-51981796D01*
X127183227Y-51978196D01*
X127159428Y-51972235D01*
X127136329Y-51963970D01*
X127114150Y-51953480D01*
X127093107Y-51940868D01*
X127073401Y-51926253D01*
X127055223Y-51909777D01*
X127038747Y-51891599D01*
X127024132Y-51871893D01*
X127011520Y-51850850D01*
X127001030Y-51828671D01*
X126992765Y-51805572D01*
X126986804Y-51781773D01*
X126983204Y-51757505D01*
X126982000Y-51733001D01*
X126982000Y-50882999D01*
X126983204Y-50858495D01*
X126986804Y-50834227D01*
X126992765Y-50810428D01*
X127001030Y-50787329D01*
X127011520Y-50765150D01*
X127024132Y-50744107D01*
X127038747Y-50724401D01*
X127055223Y-50706223D01*
X127073401Y-50689747D01*
X127093107Y-50675132D01*
X127114150Y-50662520D01*
X127136329Y-50652030D01*
X127159428Y-50643765D01*
X127183227Y-50637804D01*
X127207495Y-50634204D01*
X127231999Y-50633000D01*
X128132001Y-50633000D01*
X128156505Y-50634204D01*
G37*
M02*
