M48
; DRILL file {KiCad (5.1.5)-3} date 17/03/2020 19:19:55
; FORMAT={-:-/ absolute / inch / decimal}
; #@! TF.CreationDate,2020-03-17T19:19:55+01:00
; #@! TF.GenerationSoftware,Kicad,Pcbnew,(5.1.5)-3
; #@! TF.FileFunction,Plated,1,2,PTH
FMAT,2
INCH
T1C0.0118
T2C0.0315
T3C0.0319
T4C0.0350
T5C0.0390
T6C0.0394
T7C0.0472
T8C0.0512
T9C0.0520
T10C0.0787
T11C0.0906
%
G90
G05
T1
X1.95Y-3.415
X1.955Y-3.28
X1.955Y-3.905
X1.96Y-3.595
X1.965Y-3.74
X2.03Y-4.565
X2.03Y-4.675
X2.03Y-4.875
X2.03Y-4.995
X2.0325Y-3.51
X2.035Y-3.825
X2.035Y-4.765
X2.04Y-4.4
X2.045Y-4.165
X2.05Y-5.105
X2.055Y-4.3
X2.065Y-5.255
X2.08Y-3.695
X2.095Y-5.325
X2.11Y-3.3325
X2.11Y-3.915
X2.135Y-3.445
X2.135Y-5.165
X2.145Y-4.2
X2.145Y-5.065
X2.15Y-3.59
X2.15Y-4.085
X2.1525Y-4.62
X2.155Y-4.7025
X2.16Y-3.952
X2.165Y-4.845
X2.168Y-3.928
X2.17Y-3.89
X2.1795Y-4.3105
X2.18Y-3.765
X2.186Y-3.95
X2.19Y-4.015
X2.19Y-5.415
X2.195Y-4.385
X2.195Y-5.3
X2.2Y-3.3625
X2.205Y-5.23
X2.215Y-4.525
X2.23Y-3.495
X2.23Y-4.9
X2.235Y-3.42
X2.235Y-4.205
X2.235Y-4.815
X2.235Y-5.115
X2.24Y-4.09
X2.24Y-5.0
X2.2425Y-4.295
X2.245Y-3.885
X2.25Y-3.29
X2.255Y-3.645
X2.255Y-5.36
X2.2675Y-4.435
X2.27Y-3.825
X2.29Y-3.735
X2.29Y-4.155
X2.29Y-4.83
X2.295Y-3.53
X2.295Y-5.175
X2.3Y-3.37
X2.3025Y-4.355
X2.305Y-4.58
X2.3075Y-3.4475
X2.315Y-3.875
X2.32Y-3.5675
X2.32Y-4.895
X2.325Y-4.03
X2.33Y-3.275
X2.3375Y-5.3125
X2.34Y-4.28
X2.345Y-4.99
X2.35Y-3.33
X2.355Y-3.6225
X2.355Y-3.6475
X2.355Y-4.795
X2.365Y-3.36
X2.365Y-3.52
X2.365Y-3.545
X2.3725Y-5.06
X2.38Y-3.61
X2.38Y-3.635
X2.38Y-3.66
X2.385Y-3.41
X2.39Y-3.36
X2.39Y-5.11
X2.39Y-5.23
X2.4Y-3.475
X2.4Y-3.79
X2.4025Y-4.285
X2.4025Y-4.38
X2.405Y-4.515
X2.41Y-3.715
X2.41Y-3.845
X2.41Y-4.74
X2.4125Y-4.8675
X2.415Y-3.36
X2.425Y-4.78
X2.4325Y-4.9525
X2.44Y-4.83
X2.445Y-3.405
X2.4475Y-3.34
X2.4525Y-5.1825
X2.455Y-3.6
X2.455Y-3.695
X2.455Y-3.74
X2.458Y-4.139
X2.458Y-4.48
X2.459Y-4.4
X2.46Y-3.645
X2.46Y-5.025
X2.463Y-4.259
X2.464Y-4.333
X2.465Y-3.785
X2.468Y-4.193
X2.48Y-3.8325
X2.48Y-4.72
X2.48Y-4.875
X2.48Y-4.92
X2.4856Y-4.8094
X2.49Y-5.355
X2.496Y-4.65
X2.4975Y-3.4
X2.508Y-4.198
X2.515Y-4.705
X2.52Y-3.34
X2.522Y-4.142
X2.523Y-4.306
X2.524Y-4.415
X2.53Y-3.87
X2.53Y-5.2
X2.533Y-4.921
X2.534Y-4.986
X2.535Y-3.78
X2.541Y-4.616
X2.545Y-3.825
X2.5492Y-3.3692
X2.554Y-4.896
X2.561Y-4.813
X2.566Y-4.955
X2.567Y-4.695
X2.569Y-4.512
X2.57Y-4.64
X2.575Y-5.19
X2.58Y-4.483
X2.5825Y-3.3325
X2.585Y-3.895
X2.585Y-4.795
X2.588Y-4.352
X2.588Y-4.557
X2.592Y-4.142
X2.594Y-4.601
X2.595Y-3.395
X2.595Y-3.855
X2.595Y-4.505
X2.595Y-5.018
X2.598Y-4.257
X2.61Y-4.645
X2.614Y-4.861
X2.62Y-4.565
X2.625Y-4.46
X2.627Y-4.937
X2.6275Y-5.3175
X2.628Y-4.529
X2.631Y-4.898
X2.632Y-4.299
X2.634Y-5.037
X2.635Y-4.181
X2.635Y-4.434
X2.639Y-4.738
X2.64Y-4.605
X2.65Y-3.34
X2.65Y-3.405
X2.65Y-4.5
X2.653Y-4.98
X2.6575Y-4.41
X2.66Y-3.89
X2.6625Y-3.84
X2.664Y-4.224
X2.665Y-4.56
X2.6709Y-3.655
X2.6725Y-3.775
X2.675Y-3.285
X2.675Y-3.37
X2.675Y-4.44
X2.677Y-4.756
X2.679Y-4.258
X2.68Y-3.49
X2.68Y-3.595
X2.682Y-4.886
X2.684Y-4.939
X2.685Y-4.811
X2.689Y-4.688
X2.691Y-4.142
X2.691Y-4.987
X2.695Y-3.69
X2.7Y-4.455
X2.7Y-4.485
X2.7Y-4.52
X2.71Y-5.365
X2.715Y-3.855
X2.715Y-4.555
X2.715Y-4.939
X2.72Y-3.77
X2.724Y-4.335
X2.725Y-3.89
X2.729Y-4.215
X2.73Y-3.305
X2.734Y-4.75
X2.735Y-3.185
X2.735Y-4.425
X2.7377Y-4.4577
X2.739Y-4.37
X2.739Y-4.396
X2.74Y-4.832
X2.74Y-4.936
X2.74Y-4.98
X2.742Y-4.892
X2.7441Y-3.4369
X2.7441Y-3.5409
X2.745Y-4.62
X2.75Y-5.415
X2.7525Y-3.6475
X2.754Y-4.688
X2.755Y-4.49
X2.755Y-4.53
X2.756Y-3.594
X2.756Y-4.301
X2.759Y-4.145
X2.7625Y-3.6775
X2.765Y-3.76
X2.765Y-3.8175
X2.765Y-3.8475
X2.77Y-3.88
X2.775Y-4.338
X2.781Y-4.655
X2.784Y-4.745
X2.79Y-3.245
X2.79Y-3.34
X2.793Y-4.274
X2.795Y-3.505
X2.803Y-4.312
X2.804Y-4.162
X2.805Y-3.615
X2.805Y-3.6825
X2.808Y-4.608
X2.818Y-4.351
X2.825Y-3.65
X2.829Y-4.703
X2.831Y-4.25
X2.8325Y-5.2575
X2.835Y-4.286
X2.844Y-4.317
X2.845Y-3.37
X2.845Y-4.98
X2.85Y-3.44
X2.85Y-3.54
X2.855Y-3.19
X2.855Y-3.28
X2.855Y-3.675
X2.857Y-4.345
X2.863Y-4.14
X2.865Y-4.292
X2.89Y-4.44
X2.89Y-5.3325
X2.892Y-4.314
X2.892Y-4.353
X2.8925Y-3.5975
X2.897Y-4.167
X2.897Y-4.25
X2.898Y-4.399
X2.9Y-3.345
X2.905Y-3.23
X2.905Y-3.485
X2.916Y-4.268
X2.92Y-3.555
X2.9275Y-3.595
X2.928Y-4.138
X2.93Y-4.535
X2.95Y-3.415
X2.9525Y-5.21
X2.955Y-3.295
X2.955Y-3.53
X2.957Y-5.065
X2.9585Y-4.3431
X2.96Y-3.465
X2.96Y-4.187
X2.965Y-3.19
X2.9675Y-2.1475
X2.9675Y-2.515
X2.9675Y-3.5975
X2.975Y-3.245
X2.98Y-4.545
X2.98Y-4.71
X2.99Y-5.125
X2.991Y-4.148
X2.9925Y-2.3575
X3.015Y-2.7425
X3.015Y-4.251
X3.02Y-4.605
X3.025Y-3.36
X3.03Y-3.26
X3.03Y-3.44
X3.03Y-3.535
X3.03Y-3.63
X3.04Y-3.815
X3.04Y-5.35
X3.045Y-3.57
X3.049Y-4.203
X3.05Y-4.71
X3.055Y-3.685
X3.07Y-3.74
X3.07Y-4.655
X3.07Y-4.8459
X3.085Y-2.325
X3.09Y-3.865
X3.0925Y-3.6475
X3.095Y-4.258
X3.1Y-4.555
X3.105Y-3.275
X3.11Y-3.36
X3.11Y-3.515
X3.11Y-4.71
X3.115Y-3.435
X3.115Y-3.585
X3.12Y-2.5
X3.12Y-3.79
X3.125Y-3.745
X3.14Y-2.44
X3.14Y-3.91
X3.14Y-4.475
X3.15Y-3.24
X3.155Y-3.84
X3.16Y-3.315
X3.16Y-3.685
X3.16Y-5.365
X3.165Y-3.385
X3.165Y-3.52
X3.175Y-5.27
X3.1782Y-4.3632
X3.18Y-3.595
X3.1818Y-4.8432
X3.185Y-3.28
X3.185Y-3.79
X3.185Y-4.42
X3.185Y-5.415
X3.19Y-3.455
X3.19Y-4.635
X3.2025Y-3.74
X3.2126Y-4.5226
X3.215Y-3.655
X3.2177Y-4.4827
X3.22Y-4.57
X3.22Y-3.35
X3.22Y-3.41
X3.22Y-3.51
X3.22Y-3.995
X3.22Y-4.035
X3.22Y-4.445
X3.2225Y-2.77
X3.225Y-3.25
X3.225Y-3.855
X3.225Y-3.96
X3.23Y-2.285
X3.23Y-3.57
X3.23Y-3.81
X3.23Y-3.905
X3.235Y-2.485
X3.24Y-3.7
X3.24Y-4.3525
X3.245Y-5.3
X3.251Y-4.619
X3.255Y-2.565
X3.255Y-2.645
X3.255Y-4.005
X3.255Y-4.185
X3.255Y-4.21
X3.26Y-4.135
X3.2625Y-4.4025
X3.265Y-2.345
X3.27Y-3.76
X3.27Y-4.105
X3.2717Y-4.5792
X3.275Y-4.76
X3.28Y-4.29
X3.28Y-4.33
X3.2895Y-4.9161
X3.2925Y-2.16
X3.3Y-3.71
X3.3Y-3.965
X3.3Y-4.125
X3.3Y-4.215
X3.3025Y-4.8875
X3.305Y-2.7
X3.305Y-3.85
X3.31Y-4.265
X3.31Y-4.765
X3.315Y-3.915
X3.315Y-4.24
X3.32Y-2.43
X3.32Y-3.76
X3.325Y-4.8
X3.33Y-4.04
X3.33Y-4.15
X3.33Y-4.19
X3.335Y-2.54
X3.335Y-4.345
X3.34Y-2.28
X3.35Y-4.135
X3.35Y-4.17
X3.35Y-4.205
X3.35Y-4.285
X3.35Y-5.355
X3.355Y-4.455
X3.3552Y-4.5959
X3.36Y-4.82
X3.365Y-2.845
X3.365Y-4.505
X3.365Y-4.85
X3.375Y-3.885
X3.375Y-3.945
X3.375Y-5.31
X3.38Y-2.925
X3.39Y-3.835
X3.395Y-2.45
X3.395Y-3.02
X3.395Y-3.995
X3.395Y-4.535
X3.4Y-4.135
X3.4009Y-4.585
X3.405Y-2.765
X3.405Y-3.15
X3.405Y-4.225
X3.405Y-4.295
X3.405Y-4.35
X3.41Y-2.175
X3.41Y-2.665
X3.41Y-4.185
X3.41Y-4.48
X3.415Y-3.51
X3.42Y-3.83
X3.425Y-3.31
X3.425Y-4.065
X3.43Y-2.555
X3.43Y-3.185
X3.43Y-3.255
X3.43Y-3.38
X3.43Y-3.46
X3.43Y-5.15
X3.44Y-3.885
X3.445Y-3.85
X3.445Y-3.925
X3.45Y-4.53
X3.455Y-4.255
X3.46Y-5.07
X3.465Y-3.015
X3.465Y-4.115
X3.465Y-4.175
X3.465Y-4.48
X3.47Y-2.83
X3.47Y-3.98
X3.47Y-4.585
X3.48Y-2.925
X3.48Y-3.325
X3.48Y-3.46
X3.48Y-4.025
X3.49Y-2.31
X3.49Y-3.84
X3.49Y-4.315
X3.49Y-4.36
X3.495Y-4.55
X3.5Y-5.005
X3.505Y-3.095
X3.505Y-3.92
X3.505Y-4.45
X3.51Y-3.385
X3.51Y-4.225
X3.51Y-5.1225
X3.51Y-5.1525
X3.51Y-5.18
X3.5125Y-5.095
X3.514Y-4.1315
X3.515Y-2.735
X3.515Y-5.355
X3.52Y-3.5
X3.52Y-5.29
X3.525Y-3.25
X3.525Y-3.97
X3.53Y-3.195
X3.53Y-3.88
X3.53Y-4.585
X3.535Y-2.845
X3.535Y-5.195
X3.5375Y-5.14
X3.5375Y-5.1675
X3.54Y-5.0
X3.54Y-5.085
X3.54Y-5.1125
X3.545Y-4.285
X3.545Y-4.53
X3.55Y-3.325
X3.55Y-3.46
X3.555Y-4.04
X3.555Y-4.465
X3.555Y-5.06
X3.56Y-4.8475
X3.565Y-2.2
X3.565Y-5.21
X3.5665Y-4.5565
X3.57Y-2.795
X3.57Y-4.34
X3.5725Y-4.8275
X3.575Y-5.005
X3.58Y-3.925
X3.58Y-4.08
X3.585Y-2.6
X3.585Y-4.8475
X3.59Y-3.03
X3.59Y-4.255
X3.595Y-4.185
X3.6Y-3.4
X3.6Y-4.13
X3.605Y-2.935
X3.605Y-3.33
X3.605Y-3.49
X3.605Y-3.99
X3.61Y-2.73
X3.61Y-4.465
X3.61Y-5.35
X3.615Y-3.08
X3.615Y-4.53
X3.62Y-5.06
X3.625Y-3.165
X3.625Y-4.58
X3.63Y-5.418
X3.635Y-3.26
X3.64Y-3.465
X3.64Y-4.045
X3.64Y-4.275
X3.64Y-4.845
X3.64Y-5.21
X3.64Y-5.25
X3.645Y-4.42
X3.645Y-5.085
X3.645Y-5.16
X3.648Y-5.4
X3.65Y-3.13
X3.65Y-4.21
X3.65Y-4.46
X3.65Y-4.505
X3.654Y-5.424
X3.655Y-3.92
X3.6598Y-4.9998
X3.66Y-3.3976
X3.665Y-2.31
X3.665Y-3.325
X3.67Y-4.535
X3.6775Y-5.0175
X3.6815Y-4.129
X3.685Y-2.845
X3.685Y-4.645
X3.685Y-4.68
X3.685Y-4.995
X3.6856Y-4.4194
X3.69Y-4.455
X3.695Y-2.42
X3.697Y-4.046
X3.7Y-3.215
X3.7Y-3.47
X3.7Y-4.22
X3.7Y-4.49
X3.705Y-3.98
X3.71Y-2.97
X3.71Y-4.63
X3.715Y-2.6
X3.715Y-3.91
X3.72Y-2.2
X3.72Y-5.465
X3.73Y-3.265
X3.73Y-3.42
X3.73Y-4.605
X3.73Y-4.645
X3.73Y-5.025
X3.73Y-5.09
X3.735Y-5.23
X3.74Y-4.27
X3.74Y-5.055
X3.74Y-5.13
X3.74Y-5.19
X3.74Y-5.32
X3.745Y-2.74
X3.75Y-3.16
X3.755Y-3.33
X3.7598Y-4.8184
X3.76Y-3.075
X3.76Y-3.27
X3.76Y-4.85
X3.76Y-5.23
X3.765Y-3.955
X3.765Y-5.16
X3.77Y-3.395
X3.77Y-4.31
X3.77Y-4.895
X3.77Y-4.95
X3.77Y-5.0
X3.77Y-5.33
X3.7725Y-2.825
X3.775Y-4.005
X3.78Y-3.205
X3.78Y-3.455
X3.78Y-3.91
X3.78Y-5.055
X3.78Y-5.095
X3.785Y-4.71
X3.785Y-4.755
X3.785Y-5.195
X3.79Y-4.835
X3.79Y-5.23
X3.795Y-3.51
X3.8Y-4.085
X3.8Y-4.635
X3.805Y-2.205
X3.805Y-4.68
X3.81Y-4.465
X3.81Y-4.505
X3.81Y-4.73
X3.81Y-4.8125
X3.81Y-4.91
X3.81Y-4.985
X3.815Y-2.515
X3.815Y-4.38
X3.815Y-4.43
X3.815Y-4.865
X3.825Y-2.71
X3.825Y-2.945
X3.825Y-3.305
X3.825Y-4.02
X3.825Y-4.95
X3.825Y-5.015
X3.825Y-5.46
X3.83Y-3.255
X3.83Y-3.465
X3.83Y-4.705
X3.83Y-5.295
X3.8305Y-4.2704
X3.831Y-5.212
X3.835Y-3.55
X3.835Y-4.655
X3.835Y-5.39
X3.8385Y-3.9325
X3.84Y-3.5
X3.84Y-4.79
X3.845Y-3.41
X3.845Y-3.98
X3.845Y-4.065
X3.845Y-4.84
X3.845Y-4.985
X3.845Y-5.055
X3.848Y-5.255
X3.85Y-2.315
X3.85Y-4.345
X3.85Y-4.42
X3.85Y-4.45
X3.85Y-4.49
X3.85Y-4.905
X3.855Y-2.845
X3.86Y-3.035
X3.86Y-4.68
X3.8675Y-3.1325
X3.87Y-2.595
X3.87Y-3.525
X3.87Y-4.77
X3.87Y-4.81
X3.87Y-4.95
X3.875Y-3.345
X3.875Y-3.46
X3.875Y-4.0975
X3.875Y-4.86
X3.88Y-4.42
X3.88Y-4.65
X3.88Y-4.74
X3.88Y-4.915
X3.885Y-3.2
X3.885Y-4.46
X3.885Y-4.5
X3.885Y-5.275
X3.89Y-3.395
X3.89Y-4.97
X3.89Y-5.005
X3.89Y-5.355
X3.8925Y-4.6125
X3.895Y-3.285
X3.895Y-3.505
X3.9Y-2.46
X3.9Y-5.2
X3.9025Y-2.8825
X3.9025Y-4.58
X3.905Y-4.43
X3.9075Y-4.0775
X3.91Y-3.98
X3.915Y-3.555
X3.915Y-4.205
X3.915Y-5.115
X3.916Y-5.155
X3.9241Y-3.935
X3.925Y-3.435
X3.925Y-3.49
X3.925Y-4.0275
X3.928Y-5.275
X3.93Y-3.245
X3.94Y-3.005
X3.94Y-3.15
X3.94Y-4.56
X3.945Y-3.31
X3.945Y-3.355
X3.948Y-5.1
X3.95Y-3.38
X3.95Y-5.325
X3.955Y-2.75
X3.955Y-3.21
X3.955Y-3.555
X3.96Y-2.505
X3.96Y-2.61
X3.96Y-3.505
X3.965Y-3.82
X3.965Y-5.215
X3.97Y-2.86
X3.97Y-3.3525
X3.97Y-4.53
X3.975Y-2.27
X3.975Y-5.024
X3.98Y-2.155
X3.98Y-3.38
X3.98Y-5.06
X3.9857Y-4.6893
X3.99Y-5.145
X3.9975Y-3.3525
X3.998Y-3.8275
X4.0Y-3.305
X4.0Y-3.505
X4.0Y-3.555
X4.005Y-3.38
X4.005Y-4.645
X4.01Y-4.435
X4.01Y-4.97
X4.01Y-5.02
X4.015Y-2.955
X4.015Y-4.005
X4.015Y-4.3809
X4.015Y-4.59
X4.02Y-3.045
X4.02Y-5.42
X4.025Y-3.24
X4.025Y-3.86
X4.025Y-3.97
X4.025Y-4.29
X4.025Y-4.475
X4.025Y-5.06
X4.0275Y-3.3525
X4.029Y-5.161
X4.03Y-2.53
X4.03Y-4.2
X4.03Y-4.8425
X4.0325Y-3.38
X4.0375Y-2.72
X4.038Y-5.093
X4.04Y-3.89
X4.04Y-3.93
X4.04Y-4.03
X4.04Y-4.655
X4.045Y-3.505
X4.045Y-5.215
X4.0475Y-4.5875
X4.0489Y-5.0281
X4.05Y-3.555
X4.05Y-4.29
X4.055Y-3.305
X4.055Y-3.3525
X4.055Y-3.99
X4.06Y-3.16
X4.06Y-3.38
X4.06Y-4.185
X4.06Y-4.42
X4.06Y-4.515
X4.065Y-5.115
X4.067Y-5.01
X4.07Y-2.91
X4.07Y-3.945
X4.07Y-4.035
X4.07Y-4.345
X4.0725Y-4.5875
X4.075Y-2.425
X4.075Y-3.09
X4.075Y-3.895
X4.075Y-4.6625
X4.08Y-3.42
X4.08Y-3.52
X4.08Y-4.29
X4.08Y-5.335
X4.0825Y-3.2825
X4.085Y-3.21
X4.085Y-4.075
X4.09Y-2.795
X4.09Y-4.475
X4.09Y-5.2
X4.093Y-5.019
X4.095Y-3.4725
X4.095Y-3.62
X4.095Y-3.925
X4.095Y-3.98
X4.095Y-5.115
X4.0975Y-3.6875
X4.0975Y-4.5875
X4.1Y-4.215
X4.1Y-4.405
X4.1005Y-4.012
X4.105Y-2.63
X4.105Y-4.175
X4.1075Y-2.165
X4.11Y-2.29
X4.11Y-2.995
X4.11Y-4.35
X4.114Y-5.141
X4.115Y-3.575
X4.115Y-4.05
X4.115Y-4.29
X4.115Y-4.44
X4.115Y-4.51
X4.1175Y-2.9225
X4.12Y-3.335
X4.12Y-3.39
X4.12Y-3.95
X4.12Y-4.095
X4.12Y-4.665
X4.12Y-4.6925
X4.122Y-5.009
X4.125Y-3.265
X4.125Y-3.525
X4.125Y-3.7475
X4.13Y-3.19
X4.13Y-4.7275
X4.135Y-3.065
X4.135Y-3.45
X4.135Y-4.015
X4.135Y-4.125
X4.135Y-4.17
X4.135Y-5.085
X4.14Y-3.605
X4.14Y-3.635
X4.14Y-3.67
X4.14Y-4.255
X4.145Y-4.215
X4.145Y-4.939
X4.145Y-4.983
X4.15Y-3.985
X4.15Y-4.045
X4.15Y-4.31
X4.155Y-3.78
X4.155Y-4.095
X4.155Y-4.39
X4.155Y-5.44
X4.16Y-3.555
X4.161Y-5.049
X4.164Y-5.151
X4.164Y-5.192
X4.165Y-3.715
X4.175Y-4.44
X4.18Y-5.005
X4.185Y-4.94
X4.1875Y-3.815
X4.195Y-5.11
X4.205Y-3.58
X4.205Y-3.6359
X4.205Y-3.76
X4.21Y-3.69
X4.21Y-4.802
X4.21Y-4.83
X4.21Y-4.858
X4.21Y-5.07
X4.22Y-4.43
X4.22Y-5.15
X4.222Y-4.945
X4.225Y-4.725
X4.225Y-5.026
X4.23Y-3.835
X4.24Y-4.625
X4.24Y-5.225
X4.245Y-3.55
X4.245Y-3.875
X4.25Y-4.465
X4.25Y-4.66
X4.25Y-4.69
X4.255Y-4.99
X4.26Y-4.725
X4.26Y-4.945
X4.26Y-5.3
X4.26Y-5.41
X4.265Y-3.725
X4.265Y-5.085
X4.2686Y-4.5963
X4.27Y-3.61
X4.27Y-3.655
X4.271Y-5.049
X4.275Y-3.8
X4.29Y-3.685
X4.295Y-3.555
X4.299Y-4.97
X4.3Y-4.51
X4.305Y-4.725
X4.305Y-4.835
X4.305Y-5.015
X4.306Y-4.864
X4.308Y-4.804
X4.31Y-5.16
X4.315Y-3.655
X4.315Y-3.745
X4.32Y-3.61
X4.32Y-3.85
X4.32Y-3.895
X4.32Y-4.565
X4.34Y-5.08
X4.342Y-5.216
X4.3475Y-4.615
X4.35Y-3.81
X4.35Y-4.65
X4.35Y-4.675
X4.35Y-4.705
X4.36Y-4.545
X4.365Y-3.56
X4.365Y-4.725
X4.37Y-3.91
X4.373Y-5.113
X4.376Y-3.974
X4.385Y-4.635
X4.39Y-4.695
X4.392Y-3.954
X4.3925Y-4.7275
X4.395Y-3.85
X4.3975Y-4.6675
X4.4Y-5.425
X4.405Y-3.59
X4.406Y-3.976
X4.41Y-5.145
X4.415Y-4.635
X4.42Y-3.81
X4.42Y-3.91
X4.425Y-3.66
X4.43Y-3.765
X4.43Y-5.285
X4.435Y-3.56
X4.435Y-3.87
X4.44Y-3.71
X4.445Y-4.65
X4.45Y-3.64
X4.453Y-5.174
X4.46Y-3.845
X4.465Y-5.09
X4.47Y-3.765
X4.475Y-3.59
X4.475Y-4.985
X4.475Y-5.045
X4.49Y-4.66
X4.495Y-3.685
X4.495Y-3.81
X4.495Y-5.08
X4.505Y-3.635
X4.505Y-3.75
X4.505Y-4.62
X4.51Y-3.56
X4.515Y-4.68
X4.5155Y-4.9945
X4.52Y-5.095
X4.525Y-5.175
X4.53Y-4.02
X4.53Y-5.03
X4.5325Y-4.1225
X4.535Y-4.065
X4.535Y-4.175
X4.535Y-4.2325
X4.538Y-3.972
X4.545Y-5.06
X4.545Y-5.345
X4.55Y-3.91
X4.556Y-3.956
X4.56Y-5.02
X4.565Y-5.09
X4.572Y-3.974
X4.575Y-4.035
X4.575Y-4.235
X4.58Y-3.55
X4.58Y-4.105
X4.58Y-4.15
X4.58Y-4.195
X4.585Y-3.885
X4.59Y-5.25
X4.593Y-5.177
X4.595Y-4.725
X4.6Y-4.06
X4.6Y-4.77
X4.605Y-5.065
X4.61Y-4.165
X4.61Y-4.235
X4.615Y-3.92
X4.615Y-4.69
X4.625Y-3.875
X4.625Y-4.1
X4.6275Y-4.78
X4.63Y-5.085
X4.635Y-3.55
X4.635Y-4.2
X4.635Y-5.445
X4.6425Y-4.52
X4.645Y-5.18
X4.65Y-4.235
X4.6525Y-4.495
X4.66Y-3.96
X4.66Y-5.295
X4.665Y-3.925
X4.665Y-4.11
X4.665Y-4.2
X4.6675Y-4.515
X4.675Y-3.83
X4.685Y-4.235
X4.685Y-4.79
X4.69Y-3.88
X4.69Y-4.815
X4.694Y-5.179
X4.695Y-4.2
X4.705Y-4.575
X4.705Y-4.6
X4.71Y-1.81
X4.71Y-3.82
X4.71Y-3.985
X4.71Y-4.8
X4.715Y-2.19
X4.715Y-3.55
X4.725Y-3.26
X4.725Y-4.14
X4.73Y-1.91
X4.73Y-2.58
X4.73Y-2.705
X4.73Y-3.42
X4.735Y-2.405
X4.735Y-2.91
X4.74Y-2.84
X4.74Y-3.02
X4.74Y-4.045
X4.745Y-3.51
X4.745Y-3.905
X4.745Y-3.93
X4.745Y-4.2425
X4.745Y-5.175
X4.75Y-4.19
X4.752Y-4.768
X4.754Y-4.692
X4.76Y-3.37
X4.76Y-5.255
X4.77Y-2.06
X4.77Y-4.065
X4.77Y-5.015
X4.775Y-3.34
X4.775Y-3.89
X4.775Y-3.915
X4.775Y-3.945
X4.775Y-4.005
X4.775Y-5.085
X4.78Y-3.125
X4.784Y-4.692
X4.7845Y-4.7695
X4.785Y-2.335
X4.785Y-4.095
X4.785Y-4.21
X4.785Y-4.42
X4.785Y-4.565
X4.79Y-4.615
X4.79Y-4.73
X4.795Y-3.37
X4.795Y-4.495
X4.8025Y-4.36
X4.805Y-3.555
X4.805Y-4.3225
X4.812Y-5.176
X4.8125Y-5.01
X4.815Y-3.34
X4.815Y-5.34
X4.8196Y-5.0445
X4.82Y-2.21
X4.82Y-2.715
X4.82Y-3.225
X4.82Y-4.655
X4.8209Y-3.9741
X4.825Y-3.505
X4.83Y-3.37
X4.8325Y-4.38
X4.835Y-4.685
X4.835Y-5.095
X4.837Y-5.24
X4.845Y-3.34
X4.845Y-3.99
X4.845Y-4.06
X4.845Y-4.12
X4.845Y-4.545
X4.85Y-2.47
X4.85Y-5.01
X4.855Y-4.1512
X4.855Y-3.88
X4.855Y-4.265
X4.855Y-4.415
X4.8558Y-4.0966
X4.86Y-3.37
X4.86Y-3.915
X4.86Y-3.96
X4.86Y-4.61
X4.86Y-5.06
X4.87Y-5.175
X4.875Y-5.09
X4.875Y-5.385
X4.88Y-1.91
X4.88Y-2.03
X4.88Y-3.53
X4.885Y-2.935
X4.89Y-4.4825
X4.89Y-4.715
X4.8925Y-3.98
X4.895Y-5.273
X4.9Y-3.05
X4.9Y-4.025
X4.905Y-4.38
X4.908Y-5.183
X4.91Y-2.81
X4.91Y-4.64
X4.91Y-5.08
X4.915Y-3.245
X4.92Y-5.045
X4.92Y-5.46
X4.925Y-3.42
X4.925Y-4.585
X4.93Y-3.17
X4.93Y-3.325
X4.939Y-4.553
X4.95Y-5.185
X4.955Y-3.495
X4.96Y-2.57
X4.96Y-5.075
X4.97Y-1.8
X4.97Y-5.03
X4.9775Y-4.805
X4.979Y-4.58
X4.98Y-3.395
X4.98Y-3.55
X4.98Y-4.64
X4.98Y-4.74
X4.994Y-5.363
X5.0Y-3.74
X5.0Y-3.84
X5.005Y-3.635
X5.005Y-4.83
X5.01Y-2.83
X5.01Y-4.745
X5.01Y-4.785
X5.015Y-2.665
X5.015Y-3.015
X5.02Y-4.605
X5.02Y-5.395
X5.025Y-3.33
X5.025Y-3.895
X5.025Y-4.0775
X5.028Y-4.193
X5.029Y-4.285
X5.03Y-4.045
X5.03Y-4.219
X5.03Y-5.205
X5.032Y-4.484
X5.0325Y-4.25
X5.033Y-4.521
X5.034Y-4.448
X5.035Y-4.316
X5.035Y-4.56
X5.036Y-4.409
X5.04Y-4.115
X5.04Y-4.345
X5.04Y-4.379
X5.045Y-4.725
X5.045Y-5.135
X5.0475Y-3.925
X5.05Y-5.44
X5.052Y-4.234
X5.055Y-4.78
X5.058Y-4.279
X5.06Y-5.085
X5.061Y-4.198
X5.065Y-3.165
X5.065Y-3.425
X5.065Y-3.5025
X5.065Y-4.06
X5.065Y-4.309
X5.07Y-3.905
X5.07Y-4.0925
X5.07Y-4.34
X5.07Y-4.496
X5.07Y-4.655
X5.071Y-4.377
X5.071Y-4.42
X5.072Y-4.255
X5.072Y-4.461
X5.0725Y-5.3
X5.076Y-4.226
X5.079Y-4.533
X5.079Y-4.619
X5.08Y-4.585
X5.08Y-4.725
X5.085Y-3.735
X5.09Y-5.165
X5.094Y-3.796
X5.095Y-4.0375
X5.095Y-4.116
X5.095Y-4.196
X5.095Y-4.83
X5.1Y-1.9
X5.1Y-2.57
X5.1Y-4.223
X5.101Y-4.354
X5.101Y-4.392
X5.105Y-3.925
X5.1075Y-4.0825
X5.11Y-1.97
X5.11Y-4.425
X5.11Y-4.47
X5.11Y-4.515
X5.11Y-4.555
X5.11Y-4.61
X5.11Y-4.655
X5.1125Y-4.965
X5.115Y-3.65
X5.115Y-4.88
X5.12Y-4.77
X5.122Y-4.211
X5.125Y-4.055
X5.125Y-4.725
X5.125Y-5.08
X5.128Y-4.379
X5.13Y-2.75
X5.13Y-5.225
X5.135Y-3.6
X5.138Y-4.12
X5.14Y-3.35
X5.14Y-3.745
X5.14Y-4.449
X5.14Y-5.29
X5.141Y-4.488
X5.144Y-4.406
X5.144Y-4.62
X5.147Y-4.194
X5.148Y-4.524
X5.15Y-4.58
X5.155Y-3.48
X5.155Y-4.655
X5.1575Y-4.0925
X5.158Y-4.376
X5.16Y-1.97
X5.16Y-2.52
X5.1625Y-5.4375
X5.165Y-4.04
X5.165Y-4.915
X5.17Y-4.44
X5.17Y-4.48
X5.17Y-5.01
X5.171Y-4.206
X5.176Y-4.408
X5.18Y-1.825
X5.18Y-3.19
X5.18Y-4.52
X5.18Y-4.555
X5.185Y-5.145
X5.186Y-3.846
X5.186Y-4.117
X5.19Y-2.01
X5.19Y-2.04
X5.19Y-4.655
X5.191Y-4.382
X5.1925Y-4.83
X5.194Y-4.219
X5.195Y-3.685
X5.195Y-4.195
X5.196Y-4.62
X5.197Y-4.354
X5.203Y-4.448
X5.204Y-4.478
X5.205Y-4.06
X5.205Y-5.205
X5.21Y-2.12
X5.21Y-3.01
X5.2125Y-2.8325
X5.2125Y-4.0925
X5.2125Y-4.585
X5.215Y-4.508
X5.215Y-4.54
X5.215Y-4.955
X5.22Y-2.5
X5.22Y-4.725
X5.22Y-5.065
X5.221Y-4.372
X5.222Y-3.544
X5.224Y-4.428
X5.225Y-4.228
X5.225Y-4.65
X5.228Y-4.121
X5.23Y-4.34
X5.231Y-4.195
X5.231Y-4.399
X5.232Y-4.309
X5.234Y-4.455
X5.235Y-3.925
X5.235Y-4.0425
X5.235Y-4.76
X5.238Y-4.615
X5.239Y-4.487
X5.24Y-2.36
X5.24Y-4.256
X5.24Y-4.89
X5.24Y-5.28
X5.245Y-4.52
X5.25Y-4.216
X5.25Y-4.285
X5.2525Y-4.0925
X5.255Y-4.37
X5.255Y-4.565
X5.26Y-2.16
X5.26Y-2.67
X5.265Y-4.398
X5.266Y-4.432
X5.2675Y-4.245
X5.2675Y-4.325
X5.268Y-4.118
X5.27Y-2.47
X5.27Y-4.055
X5.27Y-4.467
X5.271Y-4.301
X5.271Y-4.351
X5.273Y-4.197
X5.273Y-4.507
X5.276Y-4.272
X5.28Y-3.75
X5.28Y-4.605
X5.28Y-5.33
X5.281Y-4.552
X5.294Y-4.7
X5.3Y-1.98
X5.305Y-3.65
X5.31Y-2.16
X5.315Y-3.125
X5.315Y-4.57
X5.32Y-2.26
X5.32Y-2.41
X5.328Y-3.554
X5.34Y-3.448
X5.34Y-3.845
X5.34Y-5.165
X5.35Y-2.13
X5.35Y-3.925
X5.35Y-4.645
X5.37Y-2.5
X5.37Y-2.65
X5.3725Y-5.1925
X5.385Y-4.71
X5.39Y-2.93
X5.39Y-3.205
X5.4Y-2.76
X5.4Y-3.32
X5.4Y-3.775
X5.4055Y-4.9195
X5.41Y-4.59
X5.42Y-1.92
X5.42Y-3.115
X5.425Y-3.475
X5.43Y-2.07
X5.432Y-4.77
X5.435Y-3.375
X5.441Y-4.1332
X5.4425Y-5.405
X5.445Y-4.635
X5.445Y-5.315
X5.45Y-2.4
X5.45Y-2.52
X5.45Y-2.6825
X5.45Y-4.255
X5.45Y-4.325
X5.4509Y-4.035
X5.455Y-4.735
X5.4575Y-2.805
X5.46Y-4.69
X5.465Y-3.915
X5.465Y-3.99
X5.465Y-4.525
X5.47Y-3.055
X5.47Y-3.22
X5.48Y-3.81
X5.48Y-5.04
X5.49Y-2.39
X5.495Y-4.175
X5.5Y-2.64
X5.5Y-4.145
X5.5Y-4.68
X5.502Y-4.78
X5.505Y-4.55
X5.51Y-1.78
X5.515Y-3.73
X5.52Y-3.4
X5.52Y-3.52
X5.52Y-3.655
X5.52Y-5.185
X5.53Y-4.14
X5.53Y-4.165
X5.53Y-4.6
X5.53Y-4.68
X5.535Y-4.45
X5.535Y-4.77
X5.54Y-2.98
X5.54Y-4.21
X5.545Y-4.115
X5.55Y-4.25
X5.55Y-4.33
X5.55Y-4.4
X5.555Y-4.0
X5.56Y-3.895
X5.56Y-5.28
X5.565Y-4.725
X5.57Y-2.54
X5.57Y-4.16
X5.574Y-4.778
X5.58Y-4.64
X5.58Y-5.395
X5.585Y-3.955
X5.59Y-1.89
X5.6Y-3.81
X5.6Y-4.495
X5.605Y-3.4
X5.605Y-3.5
X5.6075Y-4.56
X5.61Y-3.6
X5.61Y-4.42
X5.62Y-3.715
X5.62Y-5.11
X5.625Y-2.545
X5.625Y-4.005
X5.625Y-4.295
X5.64Y-2.11
X5.64Y-2.28
X5.64Y-4.11
X5.6425Y-5.195
X5.65Y-4.23
X5.655Y-3.86
X5.66Y-1.84
X5.66Y-4.61
X5.67Y-2.985
X5.67Y-3.18
X5.67Y-3.945
X5.67Y-5.28
X5.675Y-3.655
X5.6775Y-4.3825
X5.7Y-3.798
X5.7Y-4.86
X5.705Y-3.87
X5.705Y-4.115
X5.705Y-5.37
X5.7075Y-2.755
X5.71Y-4.28
X5.71Y-4.47
X5.71Y-4.97
X5.715Y-4.565
X5.72Y-1.85
X5.72Y-4.05
X5.73Y-2.11
X5.73Y-3.945
X5.732Y-3.322
X5.74Y-4.22
X5.74Y-4.73
X5.745Y-3.745
X5.75Y-1.96
X5.75Y-3.16
X5.75Y-4.36
X5.75Y-5.23
X5.76Y-2.29
X5.76Y-2.46
X5.76Y-2.9
X5.76Y-4.655
X5.765Y-3.6
X5.77Y-1.8
T2
X5.03Y-2.145
X5.03Y-2.2237
X5.03Y-2.3025
X5.03Y-2.3812
X5.03Y-2.46
X2.405Y-3.95
X2.405Y-4.0287
X2.405Y-4.1075
X2.405Y-4.1862
X5.335Y-4.805
X5.335Y-4.8837
X5.335Y-4.9625
X5.335Y-5.0412
X3.0338Y-5.2
X3.1125Y-5.2
X3.1913Y-5.2
X3.27Y-5.2
X3.3487Y-5.2
T3
X2.2013Y-4.66
X2.2013Y-4.76
X2.28Y-4.66
X2.28Y-4.76
T4
X1.97Y-2.605
X1.97Y-2.805
X2.17Y-2.605
X2.17Y-2.705
X2.17Y-2.805
T5
X5.67Y-2.48
X5.67Y-2.6572
X5.67Y-2.89
X5.67Y-3.0672
X5.67Y-1.77
X5.67Y-1.9472
T6
X5.4716Y-2.1181
X5.4716Y-2.315
X5.57Y-2.1181
X5.57Y-2.2166
X5.57Y-2.315
X2.67Y-5.085
X2.67Y-5.185
X2.77Y-5.085
X2.77Y-5.185
X2.87Y-5.085
X2.87Y-5.185
X5.635Y-4.72
X5.635Y-4.82
X5.635Y-4.92
X5.635Y-5.02
T7
X3.08Y-1.9097
X3.08Y-2.205
X3.08Y-2.6347
X3.08Y-2.93
T8
X5.2726Y-3.3347
X5.3986Y-3.7008
X5.4458Y-3.5945
X5.56Y-3.315
X5.7135Y-3.4961
X5.572Y-2.4308
X5.572Y-2.7068
X5.572Y-2.8408
X5.572Y-3.1168
X5.572Y-1.7208
X5.572Y-1.9968
T9
X2.12Y-2.095
X2.12Y-2.2919
T10
X5.569Y-1.995
X5.15Y-4.285
T11
X2.095Y-4.4738
X2.095Y-4.9462
X5.57Y-2.43
T0
M30
