%FSLAX45Y45*%
G04 Gerber Fmt 4.5, Leading zero omitted, Abs format (unit mm)*
G04 Created by KiCad (PCBNEW (5.1.5)-3) date 2020-03-17 19:19:55*
%MOMM*%
%LPD*%
G04 APERTURE LIST*
%TA.AperFunction,Profile*%
%ADD10C,0.100000*%
%TD*%
%ADD11C,0.200000*%
%ADD12C,0.300000*%
G04 APERTURE END LIST*
D10*
X14719300Y-13970000D02*
X4805680Y-13970000D01*
X14718030Y-3992880D02*
X14719300Y-13970000D01*
X4803140Y-3987800D02*
X14718030Y-3992880D01*
X4805680Y-13970000D02*
X4803140Y-3987800D01*
D11*
D12*
X5084568Y-14440714D02*
X5084568Y-14140714D01*
X5155997Y-14140714D01*
X5198854Y-14155000D01*
X5227426Y-14183571D01*
X5241711Y-14212143D01*
X5255997Y-14269286D01*
X5255997Y-14312143D01*
X5241711Y-14369286D01*
X5227426Y-14397857D01*
X5198854Y-14426429D01*
X5155997Y-14440714D01*
X5084568Y-14440714D01*
X5384568Y-14440714D02*
X5384568Y-14240714D01*
X5384568Y-14297857D02*
X5398854Y-14269286D01*
X5413140Y-14255000D01*
X5441711Y-14240714D01*
X5470283Y-14240714D01*
X5570283Y-14440714D02*
X5570283Y-14240714D01*
X5570283Y-14140714D02*
X5555997Y-14155000D01*
X5570283Y-14169286D01*
X5584568Y-14155000D01*
X5570283Y-14140714D01*
X5570283Y-14169286D01*
X5755997Y-14440714D02*
X5727426Y-14426429D01*
X5713140Y-14397857D01*
X5713140Y-14140714D01*
X5913140Y-14440714D02*
X5884568Y-14426429D01*
X5870283Y-14397857D01*
X5870283Y-14140714D01*
X6255997Y-14440714D02*
X6255997Y-14140714D01*
X6355997Y-14355000D01*
X6455997Y-14140714D01*
X6455997Y-14440714D01*
X6727426Y-14440714D02*
X6727426Y-14283571D01*
X6713140Y-14255000D01*
X6684568Y-14240714D01*
X6627426Y-14240714D01*
X6598854Y-14255000D01*
X6727426Y-14426429D02*
X6698854Y-14440714D01*
X6627426Y-14440714D01*
X6598854Y-14426429D01*
X6584568Y-14397857D01*
X6584568Y-14369286D01*
X6598854Y-14340714D01*
X6627426Y-14326429D01*
X6698854Y-14326429D01*
X6727426Y-14312143D01*
X6870283Y-14240714D02*
X6870283Y-14540714D01*
X6870283Y-14255000D02*
X6898854Y-14240714D01*
X6955997Y-14240714D01*
X6984568Y-14255000D01*
X6998854Y-14269286D01*
X7013140Y-14297857D01*
X7013140Y-14383571D01*
X6998854Y-14412143D01*
X6984568Y-14426429D01*
X6955997Y-14440714D01*
X6898854Y-14440714D01*
X6870283Y-14426429D01*
X7141711Y-14412143D02*
X7155997Y-14426429D01*
X7141711Y-14440714D01*
X7127426Y-14426429D01*
X7141711Y-14412143D01*
X7141711Y-14440714D01*
X7141711Y-14255000D02*
X7155997Y-14269286D01*
X7141711Y-14283571D01*
X7127426Y-14269286D01*
X7141711Y-14255000D01*
X7141711Y-14283571D01*
M02*
